<?xml version="1.0" encoding="UTF-8" standalone="no"?>
<!-- Created with Inkscape (http://www.inkscape.org/) -->

<svg
   xmlns:dc="http://purl.org/dc/elements/1.1/"
   xmlns:cc="http://creativecommons.org/ns#"
   xmlns:rdf="http://www.w3.org/1999/02/22-rdf-syntax-ns#"
   xmlns:svg="http://www.w3.org/2000/svg"
   xmlns="http://www.w3.org/2000/svg"
   xmlns:sodipodi="http://sodipodi.sourceforge.net/DTD/sodipodi-0.dtd"
   xmlns:inkscape="http://www.inkscape.org/namespaces/inkscape"
   width="144.91461mm"
   height="16.347281mm"
   viewBox="0 0 144.91461 16.347281"
   version="1.1"
   id="svg855"
   inkscape:version="0.92.3 (2405546, 2018-03-11)"
   sodipodi:docname="goodbye.svg">
  <defs
     id="defs849" />
  <sodipodi:namedview
     id="base"
     pagecolor="#ffffff"
     bordercolor="#666666"
     borderopacity="1.0"
     inkscape:pageopacity="0.0"
     inkscape:pageshadow="2"
     inkscape:zoom="0.35"
     inkscape:cx="-147.57419"
     inkscape:cy="79.463955"
     inkscape:document-units="mm"
     inkscape:current-layer="layer1"
     showgrid="false"
     fit-margin-top="0"
     fit-margin-left="0"
     fit-margin-right="0"
     fit-margin-bottom="0"
     inkscape:window-width="1366"
     inkscape:window-height="713"
     inkscape:window-x="0"
     inkscape:window-y="27"
     inkscape:window-maximized="1" />
  <metadata
     id="metadata852">
    <rdf:RDF>
      <cc:Work
         rdf:about="">
        <dc:format>image/svg+xml</dc:format>
        <dc:type
           rdf:resource="http://purl.org/dc/dcmitype/StillImage" />
        <dc:title></dc:title>
      </cc:Work>
    </rdf:RDF>
  </metadata>
  <g
     inkscape:label="Layer 1"
     inkscape:groupmode="layer"
     id="layer1"
     transform="translate(76.993019,-153.51089)">
    <path
       inkscape:connector-curvature="0"
       style="fill:#000000;stroke-width:0.26458332"
       d="m 48.714101,153.51089 c -1.45931,0 -1.82443,0.35044 -3.9269,3.76206 -0.87148,1.41419 -1.64441,2.5709 -1.71721,2.5709 -0.0727,8e-5 -0.65528,-0.77597 -1.29501,-1.72498 -0.63973,-0.94898 -1.63236,-2.31463 -2.20555,-3.03443 -1.03813,-1.309 -1.04815,-1.30897 -2.60707,-1.30897 -1.28955,0 -1.56528,0.0784 -1.56528,0.44495 0,0.47678 2.09867,3.73428 4.48603,6.96338 l 1.46709,1.98438 0.0915,2.64583 c 0.0503,1.45521 0.21383,2.79477 0.36328,2.97656 0.14947,0.18191 0.65906,0.33073 1.13275,0.33073 0.47369,0 0.98193,-0.14882 1.12913,-0.33073 0.14719,-0.1819 0.32169,-1.52135 0.38809,-2.97656 l 0.12093,-2.64583 2.97552,-4.44159 c 3.29958,-4.9259 3.36388,-5.2157 1.1627,-5.2157 z m 11.40033,0.18552 c -1.66734,0.007 -3.04387,0.06 -3.21996,0.1695 -0.25123,0.15621 -0.33073,1.91349 -0.33073,7.3148 0,6.24671 0.053,7.16206 0.43564,7.54475 0.3836,0.38359 0.92743,0.41392 4.56406,0.2527 2.27071,-0.10059 4.60468,-0.26156 5.18676,-0.35657 0.9983,-0.16349 1.06303,-0.23001 1.14154,-1.17769 0.13585,-1.6401 -0.0243,-1.70072 -4.18476,-1.56943 l -3.70313,0.11679 v -1.88413 -1.88462 l 1.95233,0.045 c 1.07397,0.0249 2.086,-0.0373 2.24896,-0.13798 0.36443,-0.22519 0.39466,-2.17636 0.0372,-2.39726 -0.29808,-0.18431 -1.80499,-0.36298 -3.24684,-0.38499 l -0.99218,-0.0151 v -1.44746 -1.44746 l 3.37343,-0.0739 3.37344,-0.0739 0.0842,-1.02735 c 0.0463,-0.56489 -0.0281,-1.13909 -0.16537,-1.27641 -0.18828,-0.18835 -3.77568,-0.30189 -6.55459,-0.28937 z m -37.280926,0.0832 c -2.476119,0.003 -4.680635,0.11679 -4.898927,0.25477 -0.338569,0.2141 -0.389297,1.28518 -0.348297,7.28948 0.03411,4.9916 0.139358,7.14904 0.362767,7.41815 0.251971,0.30361 1.253861,0.3793 5.00538,0.3793 h 4.690673 l 1.05316,-0.76274 c 0.57931,-0.4196 1.26522,-1.21017 1.52446,-1.75649 0.63416,-1.33638 0.45976,-3.54279 -0.36897,-4.66378 l -0.6041,-0.81701 0.56017,-0.99684 c 1.13255,-2.01509 0.38769,-4.82574 -1.55236,-5.85803 -0.79476,-0.42252 -1.54283,-0.48681 -5.423956,-0.48681 z m -33.219678,0.27027 c -1.749354,-0.008 -3.464769,0.17762 -3.816821,0.5297 -0.327059,0.32699 -0.397462,1.5472 -0.414962,7.2042 -0.01156,3.74579 0.06006,6.94148 0.159163,7.1019 0.26706,0.43209 7.7192421,0.19349 8.5808711,-0.27493 2.607861,-1.4174 3.988464,-3.58196 4.179075,-6.55204 0.113949,-1.77572 0.053811,-2.08259 -0.717269,-3.64889 -0.99545,-2.02208 -2.457172,-3.32754 -4.452443,-3.97754 -0.775917,-0.2527 -2.157005,-0.37618 -3.5176141,-0.3824 z m -18.861381,0.30438 c -0.222912,0.003 -0.447069,0.0153 -0.671793,0.0382 -7.859072,0.80161 -9.556374,11.64817 -2.284616,14.60066 3.100612,1.25891 5.957736,0.66701 8.377266,-1.7353 2.188681,-2.17299 2.820728,-4.61983 1.95027,-7.55094 -0.949989,-3.19894 -4.027458,-5.39303 -7.371127,-5.35265 z m -20.683493,0.12557 c -4.559729,0.01 -7.653446,3.14539 -7.658446,7.76182 -0.0032,3.03789 1.061343,4.66166 4.271573,6.51586 1.41731,0.8177 1.687176,0.88151 3.519165,0.81754 1.48677,-0.0516 2.307987,-0.23262 3.274737,-0.72194 3.67515,-1.8601 5.175009,-6.39347 3.37447,-10.19937 -1.293239,-2.73371 -3.644027,-4.18391 -6.781499,-4.17391 z m -19.339388,0.12816 c -3.738774,-0.0734 -7.01562,2.56749 -7.585583,6.6828 -0.231601,1.67229 -0.19712,2.04261 0.317809,3.391 0.783612,2.05211 2.35974,3.62299 4.520139,4.5062 v 0 c 2.904641,1.1874 5.556615,0.79346 7.769035,-1.15393 l 1.23765,-1.08934 -0.07441,-3.07941 -0.07441,-3.07887 -2.630847,-0.0909 c -2.93876,-0.1016 -3.326144,0.092 -3.318143,1.66243 0.006,1.1979 0.266723,1.4283 1.720826,1.52032 1.262549,0.0796 1.321063,0.11748 1.398363,0.91207 0.06796,0.69901 -0.06146,0.91737 -0.824756,1.38907 -1.697229,1.04899 -4.333543,0.62608 -5.787251,-0.92861 -0.89862,-0.9611 -1.273791,-1.95133 -1.272791,-3.35743 0.0026,-2.91629 3.512108,-5.1221 6.345348,-3.98838 l 1.1436,0.45733 0.752926,-0.84283 c 1.03531,-1.15872 0.953011,-1.56927 -0.4377,-2.18438 -1.070039,-0.47334 -2.152947,-0.70704 -3.199805,-0.7276 z m 89.851365,1.81332 h 2.910421 c 2.55764,0 2.97455,0.0642 3.43958,0.52917 0.65241,0.65252 0.67904,1.61372 0.0656,2.34662 h 5.3e-4 c -0.39559,0.4726 -0.86766,0.5774 -3.24115,0.72088 -1.527972,0.0922 -2.867422,0.075 -2.976563,-0.0388 -0.10911,-0.1138 -0.198407,-0.96086 -0.198407,-1.88256 z m -30.1986739,0.83252 c 0.905759,-0.0111 1.526495,0.12493 2.23914,0.47283 3.242,1.58261 3.352559,6.20178 0.188619,7.87498 -0.853861,0.45149 -1.588069,0.60926 -2.8365191,0.60926 h -1.684652 l 0.07235,-4.43177 0.07234,-4.43177 1.542026,-0.0801 c 0.1421291,-0.007 0.2772991,-0.0119 0.4066931,-0.0135 z m -19.7584851,0.0708 c 1.574406,-0.0188 3.174365,0.76036 4.097941,2.51148 0.737161,1.39768 0.774512,2.69523 0.117824,4.12533 -0.578051,1.25878 -1.168429,1.82321 -2.480469,2.3714 -3.043682,1.27172 -6.282822,-0.97398 -6.282822,-4.35578 0,-2.89364 2.246474,-4.6251 4.547526,-4.65243 z m -20.962027,0.003 c 2.006258,-0.0852 4.199329,1.46142 4.757848,3.5357 0.568751,2.11209 -0.524758,4.4889 -2.4722,5.37332 -3.700369,1.6805 -7.512723,-1.67082 -6.351033,-5.58263 0.43988,-1.48129 1.704635,-2.73227 3.222025,-3.18688 0.273665,-0.082 0.556751,-0.12734 0.84336,-0.13951 z m 70.918668,5.42758 3.099549,0.0749 c 3.01855,0.0726 3.10931,0.0924 3.48041,0.75446 0.60615,1.08151 0.22199,2.02102 -0.95963,2.34921 v 0 c -0.54457,0.15131 -2.03192,0.27649 -3.305225,0.27649 h -2.315104 v -1.72807 z"
       id="path880-3-6-7-0-3" />
  </g>
</svg>
