<?xml version="1.0" encoding="UTF-8" standalone="no"?>
<!-- Created with Inkscape (http://www.inkscape.org/) -->

<svg
   xmlns:dc="http://purl.org/dc/elements/1.1/"
   xmlns:cc="http://creativecommons.org/ns#"
   xmlns:rdf="http://www.w3.org/1999/02/22-rdf-syntax-ns#"
   xmlns:svg="http://www.w3.org/2000/svg"
   xmlns="http://www.w3.org/2000/svg"
   xmlns:xlink="http://www.w3.org/1999/xlink"
   xmlns:sodipodi="http://sodipodi.sourceforge.net/DTD/sodipodi-0.dtd"
   xmlns:inkscape="http://www.inkscape.org/namespaces/inkscape"
   width="107.13144mm"
   height="54.826874mm"
   viewBox="0 0 107.13144 54.826874"
   version="1.1"
   id="svg3685"
   inkscape:version="0.92.3 (2405546, 2018-03-11)"
   sodipodi:docname="logo_text.svg">
  <defs
     id="defs3679" />
  <sodipodi:namedview
     id="base"
     pagecolor="#ffffff"
     bordercolor="#666666"
     borderopacity="1.0"
     inkscape:pageopacity="0.0"
     inkscape:pageshadow="2"
     inkscape:zoom="1.4"
     inkscape:cx="236.59753"
     inkscape:cy="82.675226"
     inkscape:document-units="mm"
     inkscape:current-layer="layer1"
     showgrid="false"
     inkscape:window-width="1440"
     inkscape:window-height="872"
     inkscape:window-x="0"
     inkscape:window-y="482"
     inkscape:window-maximized="1"
     fit-margin-top="0"
     fit-margin-left="0"
     fit-margin-right="0"
     fit-margin-bottom="0" />
  <metadata
     id="metadata3682">
    <rdf:RDF>
      <cc:Work
         rdf:about="">
        <dc:format>image/svg+xml</dc:format>
        <dc:type
           rdf:resource="http://purl.org/dc/dcmitype/StillImage" />
        <dc:title></dc:title>
      </cc:Work>
    </rdf:RDF>
  </metadata>
  <g
     inkscape:label="Layer 1"
     inkscape:groupmode="layer"
     id="layer1"
     transform="translate(-52.26759,-116.98207)">
    <path
       style="fill:#000000;stroke-width:0.26458332"
       d="m 144.01533,135.39578 c -0.12495,0 -0.19128,0.61317 -0.14728,1.36321 0.0777,1.32586 0.10865,1.37409 1.11828,1.72239 0.57114,0.19703 1.0874,0.40682 1.1467,0.46611 0.0593,0.0594 -1.63313,3.38236 -3.76101,7.38458 l -3.86902,7.27654 -0.84749,-0.24286 c -1.42726,-0.40934 -1.51257,-0.34896 -1.51257,1.06968 v 1.3126 l 1.12448,0.28628 c 1.35321,0.3443 4.51917,1.27034 5.08444,1.48725 0.33409,0.12822 0.40567,-0.10181 0.40567,-1.30691 0,-1.40986 -0.0286,-1.46852 -0.79375,-1.63658 -0.9616,-0.21119 -0.96749,-0.28519 -0.13333,-1.77766 l 0.66094,-1.18237 3.27112,1.12036 c 4.43523,1.51857 4.27486,1.4044 4.64985,3.31038 0.17565,0.89287 0.2631,1.67942 0.1943,1.74821 -0.0688,0.0688 -0.61305,-0.12372 -1.20923,-0.42788 l -1.08365,-0.55293 v 1.42264 1.42213 l 1.39319,0.63358 c 2.37648,1.0801 6.87691,3.63032 8.2641,4.68291 l 1.32291,1.00356 0.0816,-1.32291 c 0.0754,-1.21867 0.0103,-1.38626 -0.82424,-2.12961 l -0.90588,-0.80666 -1.90583,-9.48521 c -1.04833,-5.21665 -1.84752,-9.54299 -1.77612,-9.6144 0.0714,-0.0714 0.58554,0.18071 1.14256,0.56018 l 1.01286,0.68987 0.0806,-1.35443 c 0.0956,-1.60006 0.22347,-1.47693 -3.65249,-3.51245 -2.47436,-1.29947 -7.93477,-3.6096 -8.53178,-3.6096 z m -77.193224,1.32292 c -5.94251,0 -12.47849,5.67634 -14.15314,12.29227 -0.58322,2.30413 -0.52277,5.87751 0.12866,7.61865 0.97208,2.59811 3.68615,4.67657 6.82234,5.22396 3.877791,0.67686 8.21243,-0.98991 11.700061,-4.49895 2.463979,-2.47911 3.54166,-4.28222 4.26228,-7.13184 1.2642,-4.9993 0.1728,-9.20782 -2.99157,-11.53729 -1.82946,-1.34678 -3.648311,-1.9668 -5.768631,-1.9668 z m -2.78847,2.67374 c 1.03537,0.003 2.05597,0.53039 2.87684,1.62521 1.67561,2.2349 2.319611,4.49431 2.315611,8.11733 -0.005,3.99942 -1.336411,7.47625 -3.40082,8.87905 -3.294941,2.23898 -6.793791,-1.67701 -7.142191,-7.99383 -0.16214,-2.93952 0.22535,-5.15903 1.29344,-7.40987 0.99902,-2.10521 2.54389,-3.22199 4.05712,-3.21789 z m 83.519974,3.06906 c 0.0266,0.0101 0.0458,0.0411 0.0605,0.0884 0.066,0.21236 0.43044,1.99388 0.81028,3.95841 0.37984,1.96453 0.76248,3.83976 0.85008,4.16719 0.19753,0.73834 0.26543,0.74649 -2.99207,-0.36743 l -2.69234,-0.92086 1.08779,-2.03501 c 2.12576,-3.97608 2.68936,-4.96015 2.87579,-4.89067 z"
       id="path880-3-6"
       inkscape:connector-curvature="0"
       sodipodi:nodetypes="ccccccscccsccccccccccccccccccccccssccccccsccccccccccccccccsc" />
    <path
       style="fill:#000000;stroke-width:0.58131021"
       d="m 105.4239,116.98214 c -7.255118,0.007 -8.39924,0.12596 -11.702049,1.22246 -9.152459,3.03825 -12.708189,7.96742 -9.12494,12.64802 1.71427,2.23927 4.120039,3.19652 7.868539,3.12926 3.574151,-0.0642 6.74474,-2.20557 6.74474,-4.55574 0,-1.79327 -1.636019,-4.16695 -3.082549,-4.47185 -0.714211,-0.1506 -0.73352,-0.45403 -0.0843,-1.35514 1.66129,-2.30571 9.639039,-3.58359 13.396859,-2.1461 4.19065,1.60313 5.80818,7.36872 2.9012,10.34305 -1.96213,2.00759 -6.80843,3.43961 -12.935639,3.82263 l -4.947282,0.3088 -0.229889,2.02777 c -0.126201,1.11512 0.0381,2.19501 0.365509,2.39979 0.32726,0.20482 2.976732,0.48177 5.886701,0.61576 2.91002,0.13402 6.25499,0.5587 7.43443,0.94436 7.13081,2.33178 7.7568,9.12551 1.03661,11.25494 -4.16511,1.31975 -6.54494,1.56176 -9.841679,1.00038 -2.597002,-0.4422 -2.905771,-0.63269 -2.455791,-1.51588 1.967079,-3.86116 0.58784,-6.43131 -3.909261,-7.28332 -2.32165,-0.43987 -3.195429,-0.40169 -5.105729,0.22301 -3.52535,1.15277 -4.75629,2.66482 -4.349011,5.34484 0.55355,3.64271 4.76519,6.36542 12.264601,7.92885 1.005139,0.20966 5.28163,0.31608 9.50328,0.23656 11.76886,-0.22153 16.99508,-2.03514 21.48231,-7.45573 1.4196,-1.71484 1.91041,-2.99566 1.91041,-4.98463 0,-3.48269 -1.49624,-5.72161 -5.20423,-7.78981 l -3.00407,-1.67569 2.29161,-0.85678 c 3.25991,-1.21774 5.18565,-4.00598 5.18565,-7.50898 0,-3.34936 -1.23657,-5.47703 -4.76589,-8.20061 -3.70285,-2.85742 -7.54978,-3.65897 -17.5303,-3.65022 z m 14.86744,13.53101 c 0.0748,0.0252 0.11323,0.10419 0.11434,0.23743 0.008,1.27152 -1.78755,3.16105 -4.65742,4.90519 l -2.59431,1.5764 2.16738,1.56101 c 1.1921,0.8586 2.67081,2.32354 3.28677,3.25567 1.77675,2.68901 0.88923,3.18631 -1.00377,0.56249 -1.16539,-1.61529 -2.73434,-2.82487 -4.93438,-3.80551 -3.03595,-1.35316 -4.02383,-2.18492 -2.59713,-2.18492 1.33875,0 7.01664,-3.24237 8.6309,-4.92865 0.81558,-0.85195 1.36365,-1.25534 1.58767,-1.17911 z"
       id="path880-3-6-7-5"
       inkscape:connector-curvature="0" />
    <g
       id="g4285"
       transform="translate(-3.3278084,-21.355655)">
      <text
         y="-23.434525"
         x="0.94494045"
         id="text3665"
         style="font-style:normal;font-variant:normal;font-weight:bold;font-stretch:normal;font-size:5.64444447px;line-height:125%;font-family:sans-serif;-inkscape-font-specification:'sans-serif, Bold';font-variant-ligatures:normal;font-variant-caps:normal;font-variant-numeric:normal;font-feature-settings:normal;text-align:start;letter-spacing:0px;word-spacing:0px;writing-mode:lr-tb;text-anchor:start;fill:#000000;fill-opacity:1;stroke:none;stroke-width:0.26458332px;stroke-linecap:butt;stroke-linejoin:miter;stroke-opacity:1"
         xml:space="preserve"><textPath
           id="textPath4278"
           xlink:href="#path4261"><tspan
   id="tspan3663"
   style="font-style:normal;font-variant:normal;font-weight:bold;font-stretch:normal;font-size:5.64444447px;font-family:sans-serif;-inkscape-font-specification:'sans-serif, Bold';font-variant-ligatures:normal;font-variant-caps:normal;font-variant-numeric:normal;font-feature-settings:normal;text-align:start;writing-mode:lr-tb;text-anchor:start;stroke-width:0.26458332px">MULTILOCALE ORACLE</tspan></textPath></text>
      <path
         sodipodi:nodetypes="cc"
         inkscape:connector-curvature="0"
         id="path4261"
         d="m 77.692787,193.1646 c 27.025303,-5.57515 40.726943,-4.53571 63.216523,0"
         style="fill:none;fill-rule:evenodd;stroke:none;stroke-width:0.26458332px;stroke-linecap:butt;stroke-linejoin:miter;stroke-opacity:1" />
    </g>
  </g>
</svg>
