<?xml version="1.0" encoding="UTF-8" standalone="no"?>
<!-- Created with Inkscape (http://www.inkscape.org/) -->

<svg
   xmlns:dc="http://purl.org/dc/elements/1.1/"
   xmlns:cc="http://creativecommons.org/ns#"
   xmlns:rdf="http://www.w3.org/1999/02/22-rdf-syntax-ns#"
   xmlns:svg="http://www.w3.org/2000/svg"
   xmlns="http://www.w3.org/2000/svg"
   xmlns:sodipodi="http://sodipodi.sourceforge.net/DTD/sodipodi-0.dtd"
   xmlns:inkscape="http://www.inkscape.org/namespaces/inkscape"
   width="107.13144mm"
   height="54.826874mm"
   viewBox="0 0 107.13144 54.826874"
   version="1.1"
   id="svg3685"
   inkscape:version="0.92.3 (2405546, 2018-03-11)"
   sodipodi:docname="logo.svg">
  <defs
     id="defs3679" />
  <sodipodi:namedview
     id="base"
     pagecolor="#ffffff"
     bordercolor="#666666"
     borderopacity="1.0"
     inkscape:pageopacity="0.0"
     inkscape:pageshadow="2"
     inkscape:zoom="1.4"
     inkscape:cx="236.59753"
     inkscape:cy="82.675226"
     inkscape:document-units="mm"
     inkscape:current-layer="text3665"
     showgrid="false"
     inkscape:window-width="1440"
     inkscape:window-height="872"
     inkscape:window-x="0"
     inkscape:window-y="482"
     inkscape:window-maximized="1"
     fit-margin-top="0"
     fit-margin-left="0"
     fit-margin-right="0"
     fit-margin-bottom="0" />
  <metadata
     id="metadata3682">
    <rdf:RDF>
      <cc:Work
         rdf:about="">
        <dc:format>image/svg+xml</dc:format>
        <dc:type
           rdf:resource="http://purl.org/dc/dcmitype/StillImage" />
        <dc:title></dc:title>
      </cc:Work>
    </rdf:RDF>
  </metadata>
  <g
     inkscape:label="Layer 1"
     inkscape:groupmode="layer"
     id="layer1"
     transform="translate(-52.26759,-116.98207)">
    <path
       style="fill:#000000;stroke-width:0.26458332"
       d="m 144.01533,135.39578 c -0.12495,0 -0.19128,0.61317 -0.14728,1.36321 0.0777,1.32586 0.10865,1.37409 1.11828,1.72239 0.57114,0.19703 1.0874,0.40682 1.1467,0.46611 0.0593,0.0594 -1.63313,3.38236 -3.76101,7.38458 l -3.86902,7.27654 -0.84749,-0.24286 c -1.42726,-0.40934 -1.51257,-0.34896 -1.51257,1.06968 v 1.3126 l 1.12448,0.28628 c 1.35321,0.3443 4.51917,1.27034 5.08444,1.48725 0.33409,0.12822 0.40567,-0.10181 0.40567,-1.30691 0,-1.40986 -0.0286,-1.46852 -0.79375,-1.63658 -0.9616,-0.21119 -0.96749,-0.28519 -0.13333,-1.77766 l 0.66094,-1.18237 3.27112,1.12036 c 4.43523,1.51857 4.27486,1.4044 4.64985,3.31038 0.17565,0.89287 0.2631,1.67942 0.1943,1.74821 -0.0688,0.0688 -0.61305,-0.12372 -1.20923,-0.42788 l -1.08365,-0.55293 v 1.42264 1.42213 l 1.39319,0.63358 c 2.37648,1.0801 6.87691,3.63032 8.2641,4.68291 l 1.32291,1.00356 0.0816,-1.32291 c 0.0754,-1.21867 0.0103,-1.38626 -0.82424,-2.12961 l -0.90588,-0.80666 -1.90583,-9.48521 c -1.04833,-5.21665 -1.84752,-9.54299 -1.77612,-9.6144 0.0714,-0.0714 0.58554,0.18071 1.14256,0.56018 l 1.01286,0.68987 0.0806,-1.35443 c 0.0956,-1.60006 0.22347,-1.47693 -3.65249,-3.51245 -2.47436,-1.29947 -7.93477,-3.6096 -8.53178,-3.6096 z m -77.193224,1.32292 c -5.94251,0 -12.47849,5.67634 -14.15314,12.29227 -0.58322,2.30413 -0.52277,5.87751 0.12866,7.61865 0.97208,2.59811 3.68615,4.67657 6.82234,5.22396 3.877791,0.67686 8.21243,-0.98991 11.700061,-4.49895 2.463979,-2.47911 3.54166,-4.28222 4.26228,-7.13184 1.2642,-4.9993 0.1728,-9.20782 -2.99157,-11.53729 -1.82946,-1.34678 -3.648311,-1.9668 -5.768631,-1.9668 z m -2.78847,2.67374 c 1.03537,0.003 2.05597,0.53039 2.87684,1.62521 1.67561,2.2349 2.319611,4.49431 2.315611,8.11733 -0.005,3.99942 -1.336411,7.47625 -3.40082,8.87905 -3.294941,2.23898 -6.793791,-1.67701 -7.142191,-7.99383 -0.16214,-2.93952 0.22535,-5.15903 1.29344,-7.40987 0.99902,-2.10521 2.54389,-3.22199 4.05712,-3.21789 z m 83.519974,3.06906 c 0.0266,0.0101 0.0458,0.0411 0.0605,0.0884 0.066,0.21236 0.43044,1.99388 0.81028,3.95841 0.37984,1.96453 0.76248,3.83976 0.85008,4.16719 0.19753,0.73834 0.26543,0.74649 -2.99207,-0.36743 l -2.69234,-0.92086 1.08779,-2.03501 c 2.12576,-3.97608 2.68936,-4.96015 2.87579,-4.89067 z"
       id="path880-3-6"
       inkscape:connector-curvature="0"
       sodipodi:nodetypes="ccccccscccsccccccccccccccccccccccssccccccsccccccccccccccccsc" />
    <path
       style="fill:#000000;stroke-width:0.58131021"
       d="m 105.4239,116.98214 c -7.255118,0.007 -8.39924,0.12596 -11.702049,1.22246 -9.152459,3.03825 -12.708189,7.96742 -9.12494,12.64802 1.71427,2.23927 4.120039,3.19652 7.868539,3.12926 3.574151,-0.0642 6.74474,-2.20557 6.74474,-4.55574 0,-1.79327 -1.636019,-4.16695 -3.082549,-4.47185 -0.714211,-0.1506 -0.73352,-0.45403 -0.0843,-1.35514 1.66129,-2.30571 9.639039,-3.58359 13.396859,-2.1461 4.19065,1.60313 5.80818,7.36872 2.9012,10.34305 -1.96213,2.00759 -6.80843,3.43961 -12.935639,3.82263 l -4.947282,0.3088 -0.229889,2.02777 c -0.126201,1.11512 0.0381,2.19501 0.365509,2.39979 0.32726,0.20482 2.976732,0.48177 5.886701,0.61576 2.91002,0.13402 6.25499,0.5587 7.43443,0.94436 7.13081,2.33178 7.7568,9.12551 1.03661,11.25494 -4.16511,1.31975 -6.54494,1.56176 -9.841679,1.00038 -2.597002,-0.4422 -2.905771,-0.63269 -2.455791,-1.51588 1.967079,-3.86116 0.58784,-6.43131 -3.909261,-7.28332 -2.32165,-0.43987 -3.195429,-0.40169 -5.105729,0.22301 -3.52535,1.15277 -4.75629,2.66482 -4.349011,5.34484 0.55355,3.64271 4.76519,6.36542 12.264601,7.92885 1.005139,0.20966 5.28163,0.31608 9.50328,0.23656 11.76886,-0.22153 16.99508,-2.03514 21.48231,-7.45573 1.4196,-1.71484 1.91041,-2.99566 1.91041,-4.98463 0,-3.48269 -1.49624,-5.72161 -5.20423,-7.78981 l -3.00407,-1.67569 2.29161,-0.85678 c 3.25991,-1.21774 5.18565,-4.00598 5.18565,-7.50898 0,-3.34936 -1.23657,-5.47703 -4.76589,-8.20061 -3.70285,-2.85742 -7.54978,-3.65897 -17.5303,-3.65022 z m 14.86744,13.53101 c 0.0748,0.0252 0.11323,0.10419 0.11434,0.23743 0.008,1.27152 -1.78755,3.16105 -4.65742,4.90519 l -2.59431,1.5764 2.16738,1.56101 c 1.1921,0.8586 2.67081,2.32354 3.28677,3.25567 1.77675,2.68901 0.88923,3.18631 -1.00377,0.56249 -1.16539,-1.61529 -2.73434,-2.82487 -4.93438,-3.80551 -3.03595,-1.35316 -4.02383,-2.18492 -2.59713,-2.18492 1.33875,0 7.01664,-3.24237 8.6309,-4.92865 0.81558,-0.85195 1.36365,-1.25534 1.58767,-1.17911 z"
       id="path880-3-6-7-5"
       inkscape:connector-curvature="0" />
    <g
       id="g4285"
       transform="translate(-3.3278084,-21.355655)">
      <g
         aria-label="MULTILOCALE ORACLE"
         style="font-style:normal;font-variant:normal;font-weight:bold;font-stretch:normal;font-size:5.64444447px;line-height:125%;font-family:sans-serif;-inkscape-font-specification:'sans-serif, Bold';font-variant-ligatures:normal;font-variant-caps:normal;font-variant-numeric:normal;font-feature-settings:normal;text-align:start;letter-spacing:0px;word-spacing:0px;writing-mode:lr-tb;text-anchor:start;fill:#000000;fill-opacity:1;stroke:none;stroke-width:0.26458332px;stroke-linecap:butt;stroke-linejoin:miter;stroke-opacity:1"
         id="text3665">
        <path
           d="m 79.862194,192.72515 -1.561746,-2.91457 -0.02215,0.004 q 0.02729,0.10969 0.08188,0.32906 0.05459,0.21937 0.115695,0.47197 0.06111,0.25261 0.100266,0.452 l 0.361108,1.83883 -0.747719,0.14684 -0.776598,-3.9546 1.140963,-0.22406 1.529902,2.84029 0.01662,-0.003 0.397551,-3.2188 1.140963,-0.22406 0.776598,3.9546 -0.78095,0.15337 -0.367634,-1.87207 q -0.03698,-0.18831 -0.0793,-0.4331 -0.03678,-0.24588 -0.07366,-0.46297 -0.03243,-0.22373 -0.04864,-0.33559 l -0.02215,0.004 -0.411104,3.29625 z"
           style="font-style:normal;font-variant:normal;font-weight:bold;font-stretch:normal;font-size:5.64444447px;font-family:sans-serif;-inkscape-font-specification:'sans-serif, Bold';font-variant-ligatures:normal;font-variant-caps:normal;font-variant-numeric:normal;font-feature-settings:normal;text-align:start;writing-mode:lr-tb;text-anchor:start;stroke-width:0.26458332px"
           id="path5535" />
        <path
           d="m 85.947567,187.50255 0.452118,2.56824 q 0.07242,0.41136 -0.05231,0.7772 -0.120149,0.35929 -0.452789,0.61844 -0.333619,0.2536 -0.883956,0.35048 -0.789373,0.13896 -1.271196,-0.18887 -0.482802,-0.33339 -0.599256,-0.9949 l -0.45016,-2.55713 0.839403,-0.14777 0.427652,2.42927 q 0.0871,0.49475 0.322449,0.65964 0.234374,0.15934 0.62906,0.0899 0.411364,-0.0724 0.556644,-0.32151 0.150839,-0.25007 0.06961,-0.71146 l -0.426673,-2.42371 z"
           style="font-style:normal;font-variant:normal;font-weight:bold;font-stretch:normal;font-size:5.64444447px;font-family:sans-serif;-inkscape-font-specification:'sans-serif, Bold';font-variant-ligatures:normal;font-variant-caps:normal;font-variant-numeric:normal;font-feature-settings:normal;text-align:start;writing-mode:lr-tb;text-anchor:start;stroke-width:0.26458332px"
           id="path5537" />
        <path
           d="m 87.621658,191.31333 -0.627694,-3.98095 0.84191,-0.13274 0.517804,3.284 1.616913,-0.25494 0.10989,0.69694 z"
           style="font-style:normal;font-variant:normal;font-weight:bold;font-stretch:normal;font-size:5.64444447px;font-family:sans-serif;-inkscape-font-specification:'sans-serif, Bold';font-variant-ligatures:normal;font-variant-caps:normal;font-variant-numeric:normal;font-feature-settings:normal;text-align:start;writing-mode:lr-tb;text-anchor:start;stroke-width:0.26458332px"
           id="path5539" />
        <path
           d="m 92.197721,190.62707 -0.844131,0.1178 -0.458726,-3.28708 -1.084512,0.15135 -0.0983,-0.70438 3.013156,-0.4205 0.0983,0.70438 -1.084512,0.15135 z"
           style="font-style:normal;font-variant:normal;font-weight:bold;font-stretch:normal;font-size:5.64444447px;font-family:sans-serif;-inkscape-font-specification:'sans-serif, Bold';font-variant-ligatures:normal;font-variant-caps:normal;font-variant-numeric:normal;font-feature-settings:normal;text-align:start;writing-mode:lr-tb;text-anchor:start;stroke-width:0.26458332px"
           id="path5541" />
        <path
           d="m 95.390445,190.22001 -1.820877,0.22269 -0.05893,-0.48183 0.460026,-0.28372 -0.316569,-2.58845 -0.514844,-0.16449 -0.05893,-0.48183 1.820877,-0.2227 0.05893,0.48183 -0.460026,0.28373 0.316569,2.58844 0.514844,0.1645 z"
           style="font-style:normal;font-variant:normal;font-weight:bold;font-stretch:normal;font-size:5.64444447px;font-family:sans-serif;-inkscape-font-specification:'sans-serif, Bold';font-variant-ligatures:normal;font-variant-caps:normal;font-variant-numeric:normal;font-feature-settings:normal;text-align:start;writing-mode:lr-tb;text-anchor:start;stroke-width:0.26458332px"
           id="path5543" />
        <path
           d="m 96.072521,190.1413 -0.416865,-4.00851 0.84774,-0.0882 0.343883,3.30674 1.628109,-0.16931 0.07298,0.70177 z"
           style="font-style:normal;font-variant:normal;font-weight:bold;font-stretch:normal;font-size:5.64444447px;font-family:sans-serif;-inkscape-font-specification:'sans-serif, Bold';font-variant-ligatures:normal;font-variant-caps:normal;font-variant-numeric:normal;font-feature-settings:normal;text-align:start;writing-mode:lr-tb;text-anchor:start;stroke-width:0.26458332px"
           id="path5545" />
        <path
           d="m 102.6277,187.53727 q 0.0469,0.62478 -0.1263,1.10758 -0.16799,0.47676 -0.57633,0.76778 -0.40272,0.2906 -1.05563,0.33961 -0.65292,0.049 -1.100131,-0.17781 -0.441579,-0.22723 -0.684902,-0.67877 -0.237694,-0.45197 -0.284587,-1.07674 -0.04689,-0.62478 0.121095,-1.10154 0.173617,-0.47717 0.576753,-0.76214 0.408341,-0.29103 1.066892,-0.34046 0.65292,-0.049 1.0945,0.17823 0.44115,0.2216 0.67885,0.67357 0.2429,0.44592 0.28979,1.07069 z m -2.932508,0.2201 q 0.04731,0.63041 0.316808,0.9781 0.26906,0.34207 0.80378,0.30193 0.54598,-0.041 0.75534,-0.41895 0.20894,-0.3836 0.16163,-1.01401 -0.0473,-0.6304 -0.31075,-0.97289 -0.26387,-0.34812 -0.80421,-0.30756 -0.54035,0.0406 -0.754921,0.42458 -0.214993,0.3784 -0.167677,1.0088 z"
           style="font-style:normal;font-variant:normal;font-weight:bold;font-stretch:normal;font-size:5.64444447px;font-family:sans-serif;-inkscape-font-specification:'sans-serif, Bold';font-variant-ligatures:normal;font-variant-caps:normal;font-variant-numeric:normal;font-feature-settings:normal;text-align:start;writing-mode:lr-tb;text-anchor:start;stroke-width:0.26458332px"
           id="path5547" />
        <path
           d="m 105.18859,186.06949 q -0.49065,0.0203 -0.73494,0.39755 -0.24429,0.37729 -0.21798,1.01457 0.0266,0.64292 0.27808,0.98843 0.25694,0.33965 0.78707,0.31776 0.2425,-0.01 0.48832,-0.0767 0.24581,-0.0667 0.52924,-0.18003 l 0.0296,0.71623 q -0.26064,0.1181 -0.51797,0.17956 -0.25733,0.0615 -0.57879,0.0747 -0.626,0.0258 -1.03689,-0.21141 -0.41113,-0.24289 -0.62197,-0.69743 -0.21107,-0.46017 -0.23668,-1.08053 -0.0251,-0.60908 0.17547,-1.08625 0.20062,-0.47717 0.60701,-0.75947 0.41203,-0.28252 1.02111,-0.30767 0.2989,-0.0123 0.60106,0.0543 0.30757,0.0607 0.58926,0.17905 l -0.2477,0.70508 q -0.23001,-0.0978 -0.46449,-0.16725 -0.22885,-0.0696 -0.44879,-0.0606 z"
           style="font-style:normal;font-variant:normal;font-weight:bold;font-stretch:normal;font-size:5.64444447px;font-family:sans-serif;-inkscape-font-specification:'sans-serif, Bold';font-variant-ligatures:normal;font-variant-caps:normal;font-variant-numeric:normal;font-feature-settings:normal;text-align:start;writing-mode:lr-tb;text-anchor:start;stroke-width:0.26458332px"
           id="path5549" />
        <path
           d="m 109.67689,189.35839 -0.30114,-0.95719 -1.46751,0.0117 -0.28586,0.96186 -0.92002,0.007 1.39014,-4.05826 1.04419,-0.008 1.46022,4.03558 z m -0.51004,-1.67239 -0.30096,-0.93462 q -0.029,-0.0957 -0.0753,-0.24212 -0.0463,-0.14639 -0.0927,-0.29842 -0.0464,-0.15204 -0.0755,-0.2647 -0.0273,0.11311 -0.0768,0.28284 -0.0439,0.16405 -0.0878,0.3168 -0.0383,0.14707 -0.0604,0.20933 l -0.2804,0.93924 z"
           style="font-style:normal;font-variant:normal;font-weight:bold;font-stretch:normal;font-size:5.64444447px;font-family:sans-serif;-inkscape-font-specification:'sans-serif, Bold';font-variant-ligatures:normal;font-variant-caps:normal;font-variant-numeric:normal;font-feature-settings:normal;text-align:start;writing-mode:lr-tb;text-anchor:start;stroke-width:0.26458332px"
           id="path5551" />
        <path
           d="m 111.10164,189.36904 0.0981,-4.02893 0.85206,0.0207 -0.081,3.32359 1.6364,0.0399 -0.0172,0.70535 z"
           style="font-style:normal;font-variant:normal;font-weight:bold;font-stretch:normal;font-size:5.64444447px;font-family:sans-serif;-inkscape-font-specification:'sans-serif, Bold';font-variant-ligatures:normal;font-variant-caps:normal;font-variant-numeric:normal;font-feature-settings:normal;text-align:start;writing-mode:lr-tb;text-anchor:start;stroke-width:0.26458332px"
           id="path5553" />
        <path
           d="m 116.60274,189.58468 -2.3166,-0.12302 0.21371,-4.02446 2.3166,0.12302 -0.0371,0.69892 -1.46549,-0.0778 -0.047,0.88493 1.36403,0.0724 -0.0371,0.69892 -1.36403,-0.0724 -0.0551,1.03712 1.46549,0.0778 z"
           style="font-style:normal;font-variant:normal;font-weight:bold;font-stretch:normal;font-size:5.64444447px;font-family:sans-serif;-inkscape-font-specification:'sans-serif, Bold';font-variant-ligatures:normal;font-variant-caps:normal;font-variant-numeric:normal;font-feature-settings:normal;text-align:start;writing-mode:lr-tb;text-anchor:start;stroke-width:0.26458332px"
           id="path5555" />
        <path
           d="m 122.74448,188.09647 q -0.0611,0.62354 -0.31468,1.06942 -0.24739,0.44081 -0.69965,0.65736 -0.44665,0.21711 -1.09828,0.15323 -0.65163,-0.0639 -1.05323,-0.36414 -0.39598,-0.29971 -0.55813,-0.78634 -0.15652,-0.48608 -0.0954,-1.10962 0.0611,-0.62355 0.30851,-1.06436 0.25301,-0.44026 0.6991,-0.65175 0.45226,-0.21655 1.10951,-0.15212 0.65164,0.0639 1.04762,0.36359 0.39653,0.29409 0.55305,0.78017 0.1627,0.48101 0.10157,1.10456 z m -2.92673,-0.28691 q -0.0617,0.62916 0.14408,1.01798 0.20631,0.3832 0.73998,0.43551 0.5449,0.0534 0.81608,-0.28297 0.27173,-0.34201 0.3334,-0.97117 0.0617,-0.62917 -0.13901,-1.01182 -0.20014,-0.38826 -0.73942,-0.44113 -0.53928,-0.0529 -0.81663,0.28859 -0.2768,0.33584 -0.33848,0.96501 z"
           style="font-style:normal;font-variant:normal;font-weight:bold;font-stretch:normal;font-size:5.64444447px;font-family:sans-serif;-inkscape-font-specification:'sans-serif, Bold';font-variant-ligatures:normal;font-variant-caps:normal;font-variant-numeric:normal;font-feature-settings:normal;text-align:start;writing-mode:lr-tb;text-anchor:start;stroke-width:0.26458332px"
           id="path5557" />
        <path
           d="m 125.05981,186.36567 q 0.81735,0.10519 1.16544,0.45161 0.3537,0.34714 0.27589,0.95175 -0.0353,0.27432 -0.16833,0.46776 -0.12671,0.18857 -0.31899,0.31179 -0.18596,0.11835 -0.39342,0.1827 l 0.95157,1.89237 -0.94051,-0.12104 -0.7543,-1.65641 -0.45346,-0.0584 -0.19741,1.53393 -0.84534,-0.1088 0.51442,-3.99716 z m -0.15092,0.68626 -0.25752,-0.0332 -0.13905,1.08047 0.27431,0.0353 q 0.41987,0.054 0.61703,-0.0629 0.20276,-0.11618 0.23806,-0.3905 0.0367,-0.28551 -0.14407,-0.42829 -0.18009,-0.14838 -0.58876,-0.20097 z"
           style="font-style:normal;font-variant:normal;font-weight:bold;font-stretch:normal;font-size:5.64444447px;font-family:sans-serif;-inkscape-font-specification:'sans-serif, Bold';font-variant-ligatures:normal;font-variant-caps:normal;font-variant-numeric:normal;font-feature-settings:normal;text-align:start;writing-mode:lr-tb;text-anchor:start;stroke-width:0.26458332px"
           id="path5559" />
        <path
           d="m 129.51319,191.07351 -0.14563,-0.99281 -1.45082,-0.22105 -0.43469,0.9044 -0.90955,-0.13858 2.01575,-3.78665 1.03231,0.15728 0.80218,4.21599 z m -0.23854,-1.73209 -0.14904,-0.97049 q -0.0135,-0.0991 -0.036,-0.251 -0.0225,-0.15188 -0.0442,-0.30934 -0.0217,-0.15747 -0.0326,-0.27332 -0.0449,0.10735 -0.12062,0.2671 -0.0693,0.15502 -0.1369,0.29888 -0.0612,0.13913 -0.0928,0.19711 l -0.42571,0.88293 z"
           style="font-style:normal;font-variant:normal;font-weight:bold;font-stretch:normal;font-size:5.64444447px;font-family:sans-serif;-inkscape-font-specification:'sans-serif, Bold';font-variant-ligatures:normal;font-variant-caps:normal;font-variant-numeric:normal;font-feature-settings:normal;text-align:start;writing-mode:lr-tb;text-anchor:start;stroke-width:0.26458332px"
           id="path5561" />
        <path
           d="m 133.06347,188.24514 q -0.484,-0.083 -0.8019,0.23479 -0.3179,0.31775 -0.42565,0.9464 -0.10871,0.63422 0.0649,1.02476 0.1801,0.38593 0.70305,0.47557 0.23922,0.041 0.49354,0.0273 0.25432,-0.0137 0.55522,-0.0652 l -0.12111,0.70654 q -0.2796,0.0609 -0.54409,0.0671 -0.26449,0.006 -0.5816,-0.0481 -0.61753,-0.10585 -0.96961,-0.4239 -0.35113,-0.32362 -0.46209,-0.81223 -0.11,-0.49418 -0.005,-1.10614 0.10299,-0.60084 0.39911,-1.0254 0.29612,-0.42457 0.75262,-0.61548 0.46207,-0.18995 1.06291,-0.087 0.29485,0.0505 0.57636,0.17896 0.28802,0.12382 0.53869,0.2985 l -0.3899,0.63756 q -0.20441,-0.14384 -0.41916,-0.26083 -0.20918,-0.11603 -0.42615,-0.15322 z"
           style="font-style:normal;font-variant:normal;font-weight:bold;font-stretch:normal;font-size:5.64444447px;font-family:sans-serif;-inkscape-font-specification:'sans-serif, Bold';font-variant-ligatures:normal;font-variant-caps:normal;font-variant-numeric:normal;font-feature-settings:normal;text-align:start;writing-mode:lr-tb;text-anchor:start;stroke-width:0.26458332px"
           id="path5563" />
        <path
           d="m 134.34782,191.89967 0.73451,-3.96264 0.83803,0.15534 -0.60591,3.2689 1.60947,0.29833 -0.12859,0.69373 z"
           style="font-style:normal;font-variant:normal;font-weight:bold;font-stretch:normal;font-size:5.64444447px;font-family:sans-serif;-inkscape-font-specification:'sans-serif, Bold';font-variant-ligatures:normal;font-variant-caps:normal;font-variant-numeric:normal;font-feature-settings:normal;text-align:start;writing-mode:lr-tb;text-anchor:start;stroke-width:0.26458332px"
           id="path5565" />
        <path
           d="m 139.75789,192.93176 -2.27676,-0.44514 0.77332,-3.95524 2.27675,0.44514 -0.1343,0.6869 -1.44028,-0.2816 -0.17004,0.86972 1.34057,0.2621 -0.1343,0.6869 -1.34057,-0.2621 -0.19929,1.01928 1.44029,0.2816 z"
           style="font-style:normal;font-variant:normal;font-weight:bold;font-stretch:normal;font-size:5.64444447px;font-family:sans-serif;-inkscape-font-specification:'sans-serif, Bold';font-variant-ligatures:normal;font-variant-caps:normal;font-variant-numeric:normal;font-feature-settings:normal;text-align:start;writing-mode:lr-tb;text-anchor:start;stroke-width:0.26458332px"
           id="path5567" />
      </g>
      <path
         sodipodi:nodetypes="cc"
         inkscape:connector-curvature="0"
         id="path4261"
         d="m 77.692787,193.1646 c 27.025303,-5.57515 40.726943,-4.53571 63.216523,0"
         style="fill:none;fill-rule:evenodd;stroke:none;stroke-width:0.26458332px;stroke-linecap:butt;stroke-linejoin:miter;stroke-opacity:1" />
    </g>
  </g>
</svg>
