<?xml version="1.0" encoding="UTF-8" standalone="no"?>
<!-- Created with Inkscape (http://www.inkscape.org/) -->

<svg
   xmlns:dc="http://purl.org/dc/elements/1.1/"
   xmlns:cc="http://creativecommons.org/ns#"
   xmlns:rdf="http://www.w3.org/1999/02/22-rdf-syntax-ns#"
   xmlns:svg="http://www.w3.org/2000/svg"
   xmlns="http://www.w3.org/2000/svg"
   xmlns:sodipodi="http://sodipodi.sourceforge.net/DTD/sodipodi-0.dtd"
   xmlns:inkscape="http://www.inkscape.org/namespaces/inkscape"
   width="300.42981"
   height="287.48358"
   viewBox="0 0 79.488721 76.063367"
   version="1.1"
   id="svg1651"
   inkscape:version="0.92.3 (2405546, 2018-03-11)"
   sodipodi:docname="moon.svg">
  <defs
     id="defs1645" />
  <sodipodi:namedview
     id="base"
     pagecolor="#ffffff"
     bordercolor="#666666"
     borderopacity="1.0"
     inkscape:pageopacity="0.0"
     inkscape:pageshadow="2"
     inkscape:zoom="1.4"
     inkscape:cx="-76.886419"
     inkscape:cy="119.04207"
     inkscape:document-units="mm"
     inkscape:current-layer="layer1"
     showgrid="false"
     fit-margin-top="-1"
     fit-margin-left="0"
     fit-margin-right="-1"
     fit-margin-bottom="0"
     inkscape:window-width="1440"
     inkscape:window-height="872"
     inkscape:window-x="0"
     inkscape:window-y="482"
     inkscape:window-maximized="1"
     units="px" />
  <metadata
     id="metadata1648">
    <rdf:RDF>
      <cc:Work
         rdf:about="">
        <dc:format>image/svg+xml</dc:format>
        <dc:type
           rdf:resource="http://purl.org/dc/dcmitype/StillImage" />
        <dc:title></dc:title>
      </cc:Work>
    </rdf:RDF>
  </metadata>
  <g
     inkscape:label="Layer 1"
     inkscape:groupmode="layer"
     id="layer1"
     transform="translate(-80.319778,-48.945847)">
    <path
       style="fill:#000000;stroke-width:0.26458332"
       d="m 80.319778,48.681584 v 0.0357 c 4.51625,0.0234 7.84977,0.0483 8.44859,0.077 8.58573,0.41119 8.54869,0.74015 -0.0662,0.58808 -5.5432,-0.0979 -7.87135,-0.0549 -7.87135,0.14624 -10e-6,0.18978 1.17619,0.28794 3.50573,0.29094 3.01013,0.005 9.88448,0.59669 10.1632,0.8754 0.0508,0.0508 -2.97417,0.0375 -6.72207,-0.0295 -3.74793,-0.0669 -6.74378,-0.0464 -6.65748,0.0455 0.20685,0.22026 9.82399,0.946881 12.59355,0.95188 1.29902,0.002 2.23986,0.121561 2.34869,0.297651 0.18028,0.291719 -1.06997,0.26949 -11.06444,-0.195851 -2.56186,-0.11927 -3.37343,-0.0795 -3.37343,0.165361 -1e-5,0.17737 0.14882,0.266109 0.33073,0.197409 0.44595,-0.16846 12.65364,0.79171 12.86433,1.01182 0.0915,0.0956 -1.26236,0.10197 -3.00861,0.0145 -9.22396,-0.462429 -10.04942,-0.480249 -9.78958,-0.212898 0.14553,0.14972 2.16959,0.4108 4.49792,0.580319 7.29261,0.53095 8.45962,0.77324 3.04271,0.63149 -2.69212,-0.0705 -5.40082,-0.196149 -6.01927,-0.279049 -0.64893,-0.087 -1.12448,-0.0427 -1.12448,0.104379 -1e-5,0.14017 1.33945,0.335581 2.97656,0.43408 4.24514,0.25542 7.95989,0.709411 8.26823,1.010801 0.17259,0.16872 -0.33335,0.20618 -1.45521,0.10748 -2.94386,-0.25909 -8.59239,-0.302931 -8.73125,-0.0677 -0.0728,0.123271 0.70115,0.24972 1.71979,0.28112 2.19277,0.0676 9.1453,0.66772 9.525,0.82217 0.14553,0.0595 -2.14633,0.0826 -5.09323,0.0517 -2.94695,-0.0308 -5.358,0.0138 -5.35781,0.0992 1.3e-4,0.0854 1.75617,0.301731 3.9026,0.481111 5.4628,0.456539 5.63568,0.477239 5.83841,0.69557 0.0996,0.107189 -1.81344,0.127549 -4.25091,0.045 -3.00945,-0.101959 -4.43177,-0.0612 -4.43177,0.127131 0,0.15259 0.24389,0.21381 0.54157,0.135909 0.55888,-0.146159 6.09447,0.53974 6.33501,0.78496 0.0744,0.0759 -1.14491,0.097 -2.70939,0.047 -3.21728,-0.10274 -3.83966,0.1522 -0.92604,0.3793 1.05503,0.0822 2.21592,0.27023 2.57969,0.41806 0.54615,0.22194 0.34745,0.27197 -1.13999,0.28577 -1.12977,0.0105 -1.74069,0.11519 -1.63814,0.28112 0.0899,0.14553 0.86149,0.26459 1.71411,0.26459 2.06524,0 2.94679,0.34909 1.33635,0.52916 l -1.18339,0.1323 0.71675,0.46663 c 0.39407,0.25668 1.43594,0.54217 2.31562,0.63408 2.18176,0.22803 2.2726,0.61908 0.14366,0.61908 -0.98055,0 -1.73581,0.11509 -1.73581,0.26458 0,0.14553 0.50601,0.26672 1.12448,0.26872 0.61846,0.002 1.3031,0.11939 1.52136,0.26045 0.29066,0.18783 0.0959,0.25745 -0.72761,0.26045 -0.61847,0.002 -1.12448,0.12319 -1.12448,0.26871 0,0.14553 0.2312,0.26459 0.51367,0.26459 0.28245,0 0.58706,0.11906 0.67696,0.26458 0.0927,0.15007 -0.12914,0.26458 -0.51315,0.26458 -0.79537,0 -0.81518,0.0729 -0.25011,0.93535 0.5897,0.89999 0.92146,0.81223 1.6893,-0.44649 0.59487,-0.97517 3.71786,-3.91915 4.86895,-4.5899 0.42597,-0.24818 0.42726,-0.32948 0.015,-1.31258 -0.2417,-0.57644 -0.45357,-1.767069 -0.47077,-2.64583 -0.0819,-4.16658 2.212832,-6.75721 5.985682,-6.75721 2.09238,0 6.00095,0.50302 6.53448,0.84077 0.29369,0.185881 0.22487,0.21736 -0.26458,0.12196 -1.54819,-0.30178 -8.13774,-0.48691 -8.29458,-0.23306 -0.10165,0.16446 0.71088,0.32421 2.14767,0.422711 4.80663,0.32961 7.76209,0.6393 7.9437,0.83199 0.1034,0.1098 -0.88398,0.126189 -2.19367,0.0367 -5.94394,-0.405991 -9.32442,-0.49272 -9.47849,-0.243391 -0.0999,0.16152 0.96701,0.32762 2.80655,0.436661 3.16648,0.187699 8.96578,0.913199 9.18549,1.14929 0.0728,0.0782 -0.52256,0.0648 -1.32292,-0.0295 -5.18523,-0.6112 -11.64167,-0.85446 -11.64167,-0.43873 0,0.13726 0.56552,0.242059 1.25677,0.233059 1.77551,-0.0233 8.58511,0.55749 9.9255,0.84646 1.17004,0.25225 -3.93994,0.154141 -9.13175,-0.175179 -1.83634,-0.116481 -2.579682,-0.0777 -2.579682,0.13487 0,0.17277 0.452692,0.29869 1.073832,0.29869 0.59063,0 2.16835,0.122809 3.50573,0.27285 1.33757,0.150079 3.6225,0.38101 5.07773,0.513149 2.18308,0.198201 1.7435,0.218661 -2.51354,0.11679 -2.83765,-0.0679 -5.66537,-0.193239 -6.28386,-0.278539 -0.67863,-0.0936 -1.124482,-0.0501 -1.124482,0.110069 0,0.15256 1.377882,0.347331 3.241152,0.457861 6.54791,0.38844 7.04296,0.585549 1.65364,0.65835 -5.397612,0.0729 -5.207792,0.31277 0.52917,0.66921 5.0078,0.31113 4.70032,0.599399 -0.52917,0.496099 -2.94262,-0.0581 -4.50974,-0.005 -4.10104,0.138491 0.36383,0.12789 1.31633,0.25324 2.11667,0.27854 0.80039,0.0253 1.99102,0.14134 2.64583,0.25786 0.9344,0.16625 0.45035,0.22721 -2.24896,0.283709 l -3.439582,0.0723 2.910422,0.21704 c 1.60073,0.11939 3.50573,0.32576 4.23333,0.45889 1.10736,0.20262 0.6762,0.25316 -2.64583,0.31006 l -3.96875,0.0677 2.77812,0.2279 c 4.07945,0.3344 4.73829,0.71872 0.95498,0.55707 -2.02451,-0.0865 -3.08864,-0.0415 -2.98534,0.12557 0.12982,0.21008 2.77747,0.55751 5.27151,0.69195 0.25464,0.0137 0.46302,0.0942 0.46302,0.1788 0,0.0846 -1.4973,0.10379 -3.32745,0.0429 -3.795822,-0.12636 -5.125102,0.29422 -1.91771,0.60668 3.76634,0.36694 4.0763,0.61496 0.5886,0.47129 -2.169402,-0.0894 -3.526992,-0.0442 -3.628722,0.12041 -0.10245,0.16575 1.0621,0.32515 3.150192,0.43098 1.82216,0.0924 3.50903,0.27727 3.74861,0.41135 0.27321,0.15284 -0.99026,0.19363 -3.38842,0.10903 -2.826872,-0.0997 -4.031022,-0.0441 -4.617812,0.21239 -0.71689,0.31341 -0.41499,0.36271 3.117122,0.51212 2.1509,0.091 4.02014,0.27509 4.15479,0.40979 0.14798,0.14795 -1.0018,0.20633 -2.93522,0.14883 -3.208262,-0.0954 -6.057382,0.11384 -6.053382,0.44442 10e-4,0.0987 2.43079,0.20894 5.399152,0.24494 2.96836,0.036 5.65959,0.16207 5.98,0.28061 0.33272,0.12308 -1.67143,0.21387 -4.67207,0.21187 -4.841872,-0.004 -8.005402,0.21789 -7.684802,0.53847 0.072,0.0721 1.36237,0.13772 2.86804,0.14572 2.36815,0.0129 6.591442,0.48828 7.476552,0.8413 0.15869,0.0633 -2.10073,0.0484 -5.020882,-0.0326 -3.69276,-0.10247 -5.46514,-0.0571 -5.82084,0.14934 -0.40574,0.23542 0.008,0.30262 2.00195,0.32402 2.55368,0.0274 10.160372,0.80074 10.419002,1.05936 0.0779,0.0779 -1.84761,-0.0218 -4.27881,-0.22117 -4.120992,-0.33792 -8.787472,-0.24908 -8.784472,0.16691 6.9e-4,0.0961 1.04251,0.19958 2.3151,0.23048 3.55243,0.0863 9.892162,0.63178 10.500652,0.90331 0.43191,0.19269 0.38061,0.2128 -0.2496,0.0971 -1.56564,-0.28729 -13.096872,-0.47572 -13.096872,-0.21393 0,0.14084 0.92273,0.27227 2.05052,0.29197 2.9301,0.0513 10.418252,0.5305 10.563692,0.67592 0.0674,0.0674 -2.82188,0.10437 -6.420272,0.0822 -4.16158,-0.0257 -6.57517,0.056 -6.63267,0.22428 -0.0578,0.16911 1.69976,0.28172 4.8705,0.31212 2.72852,0.0262 5.377662,0.16248 5.886982,0.30334 0.67585,0.18687 -0.66453,0.26339 -4.960942,0.28319 -3.23784,0.0149 -5.88698,0.1276 -5.88698,0.25011 0,0.12249 2.23242,0.30411 4.96094,0.40411 4.911962,0.17998 6.416142,0.33523 6.416142,0.66146 0,0.0926 -1.69664,0.0761 -3.770312,-0.0367 -4.20436,-0.22861 -7.47448,-0.16626 -7.47448,0.14211 0,0.1117 1.78594,0.24934 3.96875,0.30644 6.134262,0.16049 6.653512,0.63046 0.72761,0.65836 -5.15054,0.0243 -6.64131,0.38232 -2.11667,0.5085 4.58124,0.127759 5.383582,0.507079 1.1467,0.542081 -2.02515,0.01669 -3.61985,0.0926 -3.54345,0.168979 0.0764,0.0764 1.77068,0.239141 3.76514,0.36122 2.18808,0.133921 3.751002,0.347781 3.940332,0.539501 0.24411,0.247179 -0.552942,0.276288 -3.588932,0.13023 -3.04858,-0.146682 -3.9026,-0.11558 -3.9026,0.14314 0,0.18216 0.15638,0.27132 0.34778,0.197919 0.53216,-0.204211 5.46009,0.222459 5.73505,0.49661 0.14592,0.145481 -0.96158,0.206049 -2.78794,0.15245 -3.73177,-0.109501 -4.1129,0.35777 -0.45062,0.552421 3.99603,0.212378 4.618202,0.68975 0.92604,0.710549 -1.63711,0.009 -2.97656,0.118121 -2.97656,0.24185 0,0.236469 3.71396,0.565571 6.45697,0.572569 0.887152,0.0021 1.791412,0.128482 2.009692,0.280091 0.2806,0.194921 -0.82279,0.251801 -3.765142,0.194299 -2.65748,-0.0519 -4.15713,0.0145 -4.15013,0.183452 0.006,0.145521 0.27135,0.226438 0.58962,0.17984 0.83431,-0.12219 8.119922,0.518541 8.119922,0.71416 1.8e-4,0.0904 -1.87505,0.14504 -4.167192,0.121449 -2.89943,-0.0298 -3.80541,0.0245 -2.97708,0.1788 0.65485,0.121942 2.14313,0.24238 3.3073,0.267679 1.164162,0.02529 2.414322,0.149752 2.778122,0.276982 0.41667,0.14591 -0.68492,0.19808 -2.976562,0.141079 -2.00091,-0.0497 -3.63802,0.0127 -3.63802,0.139009 0,0.12628 0.80366,0.240001 1.78594,0.252701 0.98226,0.01281 2.38125,0.11611 3.108852,0.229441 1.13636,0.176959 0.9125,0.216289 -1.587502,0.27699 -2.49999,0.0607 -2.72386,0.0995 -1.5875,0.276468 0.7276,0.113332 1.91823,0.21857 2.64583,0.233572 0.727612,0.015 1.501512,0.153339 1.719792,0.30748 0.28438,0.200779 -0.3344,0.2325 -2.182812,0.112139 -1.74688,-0.113761 -2.57969,-0.0773 -2.57969,0.112651 0,0.15956 0.59905,0.289139 1.38907,0.300239 0.76398,0.0108 1.92484,0.114469 2.579682,0.230992 1.08661,0.193328 1.00571,0.215177 -0.926042,0.249089 -1.47415,0.0259 -1.9962,0.115401 -1.71979,0.294039 0.21828,0.14106 0.89595,0.25844 1.50585,0.26044 0.60986,0.0021 1.183792,0.12596 1.275892,0.274921 0.10994,0.1779 -0.2021,0.211378 -0.910022,0.0982 -0.72546,-0.116012 -1.07797,-0.0748 -1.07797,0.12609 0,0.18121 0.5135,0.298691 1.30742,0.298691 0.719002,0 1.392422,0.137469 1.496552,0.305919 0.12823,0.20752 0.0148,0.260749 -0.35192,0.164848 -0.29771,-0.0778 -0.69568,-0.0462 -0.88419,0.0703 -0.235952,0.145831 0.0534,0.403532 0.92915,0.827342 l 1.27227,0.615979 0.43047,-0.659389 c 0.23677,-0.362501 0.80553,-1.077842 1.264,-1.59008 l 0.83354,-0.93173 3.39979,0.179318 c 5.18749,0.273122 10.41125,0.806061 10.41125,1.062472 0,0.126299 -0.32742,0.168428 -0.7276,0.0935 -1.57586,-0.29509 -13.21409,-0.483899 -13.37903,-0.217038 -0.10835,0.175319 1.50643,0.33336 4.65501,0.456298 7.03477,0.27468 7.87444,0.660612 1.38183,0.635111 -6.55828,-0.0258 -7.01146,-0.009 -7.01146,0.268711 0,0.12301 2.05383,0.31682 4.56407,0.430469 7.67104,0.3473 8.44941,0.633111 1.32291,0.485759 -4.13096,-0.0854 -6.68073,-0.0425 -6.68073,0.112652 0,0.14523 2.46195,0.32507 5.84668,0.42685 3.21575,0.0967 6.04329,0.285559 6.28282,0.41961 0.26918,0.150699 -2.05053,0.185569 -6.07198,0.0915 -4.22013,-0.0987 -6.5643,-0.059 -6.6704,0.112651 -0.10607,0.171638 1.99584,0.330989 5.97948,0.4532 3.37863,0.103669 6.22617,0.26969 6.3283,0.36949 0.10215,0.0998 -2.75321,0.14419 -6.34535,0.0982 -3.59217,-0.046 -6.46027,-0.0131 -6.37377,0.0734 0.31525,0.31524 4.6946,0.670099 8.63358,0.699701 2.4592,0.01849 4.10305,0.137358 4.20594,0.30385 0.11574,0.187248 -1.90577,0.211809 -6.41821,0.0786 -3.62313,-0.106979 -6.48945,-0.0941 -6.36912,0.0284 0.12034,0.1225 2.91831,0.358741 6.21771,0.525039 l 5.99912,0.3023 -6.1371,-0.045 c -3.37527,-0.02479 -6.07525,0.01781 -6.00015,0.0946 0.0751,0.0768 1.34867,0.27105 2.82981,0.43202 l 2.69285,0.293 -2.91041,0.0754 -2.91042,0.0755 2.05052,0.258379 c 1.12779,0.14229 2.05104,0.334021 2.05104,0.425821 3.4e-4,0.0918 -0.89263,0.127481 -1.98438,0.0796 -1.2976,-0.0569 -1.98489,0.0118 -1.98489,0.198432 0,0.15884 0.49882,0.287909 1.12448,0.289909 0.61846,0.0021 1.30307,0.12568 1.52135,0.274399 0.29204,0.198829 0.0674,0.253842 -0.85111,0.207741 -0.68648,-0.0344 -1.33177,0.02069 -1.4335,0.12247 -0.10176,0.10174 0.28169,0.196861 0.85163,0.21136 0.56996,0.0145 1.33377,0.121719 1.69757,0.238231 0.5049,0.1617 0.28575,0.222527 -0.92604,0.256828 -1.76057,0.0499 -1.38351,0.44967 0.52916,0.5612 0.98425,0.0574 0.95647,0.0745 -0.39687,0.2403 -0.94015,0.11521 -1.17425,0.199882 -0.66146,0.239781 0.43656,0.034 1.03188,0.164319 1.32292,0.289391 0.4105,0.176389 0.26215,0.238468 -0.66146,0.276468 l -1.19063,0.0491 0.99529,0.192749 c 0.54732,0.106141 1.07409,0.272068 1.17099,0.368968 0.0969,0.0968 -0.20171,0.10077 -0.66404,0.008 -0.54591,-0.10918 -0.84078,-0.0636 -0.84078,0.12971 0,0.16371 0.38696,0.31146 0.8599,0.32866 l 0.85989,0.0315 -0.79375,0.18914 -0.79375,0.18913 1.05834,0.22893 1.05833,0.22944 -0.79375,0.180362 c -0.79038,0.17975 -0.7906,0.18067 -0.0816,0.21187 0.39158,0.0172 0.79712,0.169 0.90124,0.33745 0.12967,0.20986 0.01,0.25931 -0.38137,0.15709 -0.31379,-0.0821 -0.57051,-0.041 -0.57051,0.0909 0,0.1319 0.47625,0.23978 1.05833,0.23978 0.60283,0 1.05833,0.12679 1.05833,0.29507 0,0.17298 -0.27534,0.24278 -0.66145,0.16898 -0.3638,-0.0695 -0.66146,-0.0235 -0.66146,0.10181 0,0.12534 0.40979,0.22789 0.91054,0.22789 0.50072,0 0.98393,0.11906 1.07383,0.26459 0.0938,0.15181 -0.15336,0.26785 -0.5798,0.27285 -0.68367,0.008 -0.70512,0.0371 -0.26821,0.36845 0.26122,0.19812 1.03513,0.45042 1.71979,0.56069 1.09142,0.17578 1.16337,0.22512 0.58343,0.39894 -0.36378,0.10904 -0.48287,0.21256 -0.26458,0.22996 3.15944,0.25183 7.49363,0.84295 7.86153,1.07229 0.39516,0.24633 0.34267,0.27307 -0.32091,0.16329 -1.44785,-0.23951 -8.20552,-0.4864 -8.02121,-0.293 0.2051,0.21521 0.55313,0.25819 5.50767,0.67903 1.96453,0.16687 3.63137,0.36498 3.70417,0.44028 0.0728,0.0753 -1.89177,0.0689 -4.36563,-0.0145 -4.99607,-0.16853 -4.68188,0.17333 0.44029,0.47904 4.9918,0.29794 4.96195,0.67105 -0.0434,0.54415 -4.57676,-0.11602 -4.31227,-0.0351 2.11666,0.64958 1.95053,0.20769 1.71353,0.2254 -1.78593,0.13281 -2.47642,-0.0656 -4.0349,-0.009 -4.0349,0.14727 0,0.14242 1.07551,0.26419 2.4474,0.27699 1.34607,0.0125 3.51893,0.18483 4.82864,0.38344 l 2.38125,0.36122 -4.43177,-0.10439 c -2.4375,-0.0573 -4.43177,-0.01 -4.43177,0.1049 0,0.11478 1.45852,0.29332 3.24115,0.39688 5.10836,0.29678 6.301,0.67881 1.5875,0.50849 -3.07864,-0.11125 -4.0349,-0.0696 -4.0349,0.17674 0,0.19606 0.17798,0.25495 0.4532,0.14934 0.52967,-0.20325 7.43353,0.36864 8.00365,0.66301 0.21302,0.11 -1.44095,0.13479 -3.67575,0.0553 -2.99907,-0.10665 -4.01444,-0.0654 -3.87728,0.15658 0.11303,0.18287 1.08709,0.31332 2.48512,0.33332 1.26476,0.0181 3.13307,0.12486 4.15169,0.23719 1.54715,0.17057 1.27494,0.19767 -1.65365,0.16537 -1.92818,-0.0213 -3.50576,0.0511 -3.50573,0.16019 5e-5,0.10914 0.50599,0.21797 1.12448,0.24237 0.61846,0.0244 1.42214,0.0644 1.78594,0.0884 0.36383,0.024 1.61393,0.0872 2.77812,0.14056 2.09942,0.0963 2.09188,0.0984 -0.92604,0.24288 l -3.04271,0.14573 1.5875,0.39222 c 0.8731,0.2159 2.72488,0.39488 4.115,0.39688 2.39792,0.004 2.6318,-0.047 4.56406,-1.00201 1.12008,-0.55365 2.03657,-1.12541 2.03657,-1.2702 0,-0.14481 -0.18011,-0.61094 -0.39998,-1.03612 -0.46818,-0.90541 -0.64481,-3.55766 -0.26148,-3.92586 0.48133,-0.46236 5.42396,-0.49623 5.42396,-0.0372 0,0.15483 -1.01529,0.2789 -2.4474,0.29921 l -2.44739,0.0346 2.98431,0.34261 c 1.64126,0.1885 3.12957,0.40136 3.30729,0.47336 0.17778,0.072 -1.15517,0.14043 -2.96209,0.15193 -3.68548,0.0234 -4.103,0.28261 -0.76275,0.47335 3.30327,0.18862 3.47852,0.5889 0.26201,0.5979 -2.84587,0.008 -3.59495,0.40933 -0.92295,0.49402 2.25351,0.0714 4.31188,0.34069 4.31188,0.56379 0,0.10741 -1.32076,0.14652 -2.93522,0.0868 -3.5855,-0.13248 -3.70759,0.30655 -0.15916,0.57258 3.41368,0.25594 3.64725,0.57001 0.37155,0.49971 -2.58408,-0.0555 -2.63233,-0.0466 -1.11362,0.20464 4.54123,0.75122 4.43667,0.71521 2.0438,0.70021 -1.20425,-0.008 -2.25259,0.0497 -2.33009,0.12713 -0.0774,0.0774 0.81853,0.2259 1.99109,0.32969 1.17252,0.1038 2.13165,0.29623 2.13165,0.42788 0,0.1353 -0.65093,0.16296 -1.49655,0.0636 -1.05806,-0.12436 -1.44365,-0.0907 -1.31671,0.11472 0.31316,0.50667 2.54289,0.67168 4.45658,0.32969 1.45779,-0.26053 1.87809,-0.44368 2.05568,-0.89555 0.12274,-0.31243 0.48726,-1.25728 0.81029,-2.09961 0.323,-0.84232 1.1194,-2.12289 1.7694,-2.84582 l 1.18184,-1.31465 -0.32453,-1.35237 c -0.43246,-1.80266 -0.19264,-4.21042 0.53692,-5.390892 0.80346,-1.300004 1.89572,-1.795103 4.10104,-1.858804 1.01862,-0.0294 1.28654,-0.004 0.59532,0.0563 -2.14041,0.187381 -1.38999,0.52292 1.57509,0.70435 4.29014,0.262484 3.76157,0.580574 -0.79426,0.478004 -2.21213,-0.0498 -3.96249,-0.0328 -3.88969,0.0377 0.0728,0.0705 1.20383,0.20801 2.51354,0.30541 3.06176,0.22772 5.69807,0.59292 5.91489,0.81959 0.0937,0.098 -0.54384,0.105122 -1.41697,0.016 -1.54977,-0.15822 -4.68971,-0.24363 -6.94531,-0.18913 -0.61844,0.015 -1.12448,0.15336 -1.12448,0.307472 0,0.15412 0.10103,0.21779 0.22427,0.14159 0.31626,-0.19546 7.97213,0.43164 7.8419,0.64234 -0.0589,0.0953 -1.95736,0.11728 -4.21886,0.0486 -3.07796,-0.0935 -4.1119,-0.0461 -4.1119,0.19017 0,0.17354 0.13338,0.23321 0.29663,0.13229 0.32393,-0.20018 9.05798,0.39575 9.84591,0.67179 0.26691,0.0935 -1.96554,0.11999 -4.96094,0.0584 -6.62043,-0.13608 -7.50456,0.31211 -1.1467,0.58136 4.79774,0.20319 6.28385,0.37855 6.28385,0.74207 0,0.1354 -0.0893,0.19401 -0.19843,0.12971 -0.43979,-0.25928 -10.3849,-0.48792 -10.3849,-0.23875 0,0.32384 1.59739,0.52549 5.95313,0.75138 1.89177,0.0981 3.67774,0.28188 3.96875,0.40876 0.36192,0.15776 0.15282,0.1908 -0.66146,0.1049 -1.84084,-0.19427 -8.94169,-0.28927 -9.10901,-0.12195 -0.0819,0.0819 1.46883,0.2799 3.44631,0.43976 3.25177,0.26287 4.11496,0.41857 3.78839,0.68317 -0.0607,0.0491 -1.59835,0.004 -3.41736,-0.0992 -1.82438,-0.10392 -3.4198,-0.0848 -3.55844,0.0429 -0.13827,0.12727 -0.19779,0.23581 -0.13229,0.24081 3.82428,0.30628 5.16197,0.74223 2.36781,0.77153 -2.39216,0.0251 -2.0679,0.50474 0.39688,0.58704 l 1.5875,0.0527 -1.44694,0.0992 c -0.79593,0.0546 -1.58711,0.21525 -1.75803,0.35709 -0.20897,0.17343 -0.4437,0.12525 -0.71675,-0.1478 -0.4613,-0.46128 -0.97307,-0.53583 -0.97307,-0.14159 0,0.14553 0.11906,0.26458 0.26458,0.26458 0.14552,0 0.26458,0.11905 0.26458,0.26459 0,0.14551 -0.29072,0.26458 -0.64595,0.26458 -0.35518,0 -0.71935,0.11906 -0.80925,0.26458 -0.0988,0.15982 0.28797,0.27199 0.97668,0.28319 0.62701,0.0102 1.37301,0.1098 1.65778,0.22117 0.4163,0.16283 0.31268,0.23616 -0.52917,0.37517 -0.57576,0.0951 -1.51308,0.1737 -2.08307,0.1757 -1.81449,0.005 -0.75586,0.36035 1.31826,0.44235 3.22835,0.12759 3.36858,0.60182 0.18087,0.61082 -1.49159,0.004 -2.71162,0.0976 -2.71146,0.20671 1.6e-4,0.10913 1.39914,0.23496 3.10885,0.27957 5.12195,0.13363 5.58617,0.52245 0.66094,0.55345 -2.67189,0.0168 -4.29948,0.12704 -4.29948,0.29146 0,0.15835 1.142,0.27523 2.84428,0.29093 1.56438,0.0145 3.85627,0.11471 5.09322,0.22325 1.92177,0.16859 1.49842,0.2076 -2.91041,0.2651 -5.13895,0.0671 -6.23708,0.46458 -1.42886,0.51728 3.26285,0.0357 6.46745,0.32341 6.31693,0.56689 -0.0678,0.1097 -2.3266,0.13437 -5.01933,0.0548 -3.59423,-0.10623 -4.89583,-0.064 -4.89583,0.15917 0,0.21594 1.3216,0.31286 4.56407,0.33486 2.51026,0.017 5.33794,0.11794 6.28385,0.22428 1.15867,0.13024 -0.33546,0.20637 -4.57956,0.23357 -3.59657,0.023 -6.23715,0.14115 -6.15415,0.27544 0.08,0.12936 2.736,0.32287 5.90248,0.42995 3.16648,0.10706 6.29309,0.29439 6.9479,0.41599 0.69096,0.1283 -1.73599,0.16168 -5.78311,0.0796 -5.71744,-0.11601 -6.95328,-0.0785 -6.85798,0.20878 0.089,0.26838 1.46056,0.39556 5.85649,0.54311 3.15701,0.10597 6.12372,0.2979 6.59288,0.42685 0.52361,0.144 -1.62454,0.18199 -5.56297,0.0982 -4.74316,-0.10091 -6.41615,-0.0573 -6.41615,0.16795 0,0.19954 0.66199,0.31371 1.91823,0.33021 5.1324,0.0674 10.84694,0.47413 11.32954,0.80667 0.25278,0.1742 -0.41203,0.20079 -2.00297,0.0796 -2.98453,-0.22742 -9.94334,-0.3525 -10.38335,-0.18655 -0.86823,0.32748 0.18961,0.54379 2.77451,0.56689 3.94258,0.0352 8.82629,0.32899 9.46092,0.56947 0.29107,0.1103 -2.23904,0.1354 -5.6224,0.0553 -4.04304,-0.0957 -6.15156,-0.0544 -6.15156,0.1204 0,0.31369 3.24059,0.5975 7.14375,0.6258 1.52797,0.0111 3.01625,0.12609 3.30729,0.25528 0.32573,0.14464 -1.4798,0.21374 -4.69687,0.17984 -3.25747,-0.0343 -5.19345,0.0407 -5.14025,0.19947 0.0469,0.14012 0.79083,0.26285 1.65364,0.27284 0.86278,0.01 2.75953,0.058 4.21473,0.10698 2.50021,0.0842 2.57305,0.10246 1.32292,0.32815 -0.7276,0.13138 -2.03732,0.2188 -2.91042,0.19429 -2.03488,-0.0571 -3.16352,0.001 -3.00912,0.15556 0.0671,0.0671 1.90293,0.1974 4.07934,0.28989 2.17638,0.0925 4.00634,0.21613 4.06694,0.27493 0.0606,0.0587 -1.48721,0.11537 -3.43959,0.12557 -4.19323,0.022 -3.95656,0.44962 0.28681,0.51832 3.82651,0.0619 4.91062,0.46096 1.34514,0.49506 -1.51584,0.0145 -2.69015,0.0926 -2.60915,0.17362 0.22715,0.22715 1.42891,0.34114 4.17442,0.39534 2.47703,0.0489 2.49303,0.053 1.10381,0.30592 -0.77531,0.14114 -1.35649,0.31007 -1.29139,0.37517 0.31239,0.31239 6.30496,0.10356 7.94577,-0.27698 0.83278,-0.19313 1.58784,-0.34934 1.89756,-0.39636 V 48.681354 h -24.07605 c 0.77534,0.0894 2.11993,0.22383 3.43906,0.34159 5.71977,0.51054 6.03814,0.72616 0.8599,0.58187 -3.65932,-0.10196 -4.96094,-0.0584 -4.96094,0.16743 0,0.16837 0.38696,0.30806 0.8599,0.31006 2.31347,0.0106 8.39747,0.54585 8.95707,0.78807 0.52681,0.22805 0.43264,0.25384 -0.55655,0.15089 -0.65486,-0.0681 -2.97657,-0.18481 -5.15938,-0.25941 -4.71913,-0.16124 -3.9103,0.17975 1.53324,0.646471 2.01623,0.172869 3.98415,0.420539 4.37338,0.55035 0.59132,0.197249 0.53395,0.216409 -0.35037,0.11731 -2.85917,-0.320341 -8.86354,-0.46847 -8.86354,-0.218591 0,0.14745 0.8632,0.340711 1.91823,0.42891 4.78348,0.399921 5.77716,0.525601 5.9154,0.74931 0.0813,0.13159 -0.1296,0.1816 -0.46922,0.111101 -0.33962,-0.0705 -2.04629,-0.186781 -3.79253,-0.258381 l -3.175,-0.13022 2.4846,0.373101 c 1.36665,0.205369 2.55593,0.44495 2.64273,0.53175 0.0868,0.0868 -0.91208,0.0736 -2.22002,-0.0289 -1.30797,-0.1025 -2.28588,-0.0881 -2.17299,0.032 0.22281,0.23705 0.28944,0.2488 2.84582,0.50333 2.73804,0.27263 2.90334,0.71597 0.19017,0.51005 -1.65659,-0.12572 -2.3151,-0.0903 -2.3151,0.12505 -10e-6,0.189539 0.56326,0.30241 1.52135,0.30541 0.83674,0.002 1.69994,0.13079 1.91823,0.28577 0.29196,0.20726 -0.005,0.24618 -1.12448,0.14728 -0.85545,-0.0756 -1.52135,-0.0269 -1.52135,0.11111 -1e-5,0.135 0.38695,0.25386 0.85989,0.26406 0.47294,0.0102 1.09802,0.13167 1.38906,0.26975 0.41857,0.19861 0.34944,0.2233 -0.33073,0.11989 -0.47294,-0.0719 -0.85989,-0.0296 -0.85989,0.0935 0,0.123129 0.62507,0.317149 1.38906,0.43098 1.27272,0.18962 1.32257,0.22212 0.59531,0.38809 l -0.79375,0.18086 1.45521,0.70177 c 0.80036,0.38595 1.58762,0.703349 1.74977,0.704349 0.16211,0.001 0.36825,-0.532549 0.45785,-1.186489 0.25114,-1.832351 1.33226,-3.69599 2.83187,-4.88136 1.14405,-0.90432 1.42503,-1.016751 1.99936,-0.798401 0.36754,0.13974 2.00005,0.25639 3.62768,0.25839 1.62764,0.002 3.1381,0.11937 3.35639,0.26044 0.265,0.171241 -1.0758,0.257451 -4.0349,0.26046 -2.43747,0.002 -4.43177,0.10945 -4.43177,0.23822 0,0.128781 2.14443,0.321041 4.7656,0.427371 2.75283,0.11167 4.83675,0.30794 4.93355,0.464569 0.11332,0.183341 -1.55439,0.229641 -5.148,0.143141 -6.04084,-0.14537 -7.71929,0.14994 -2.38797,0.42013 5.10019,0.25848 7.36182,0.47312 7.36182,0.69815 0,0.108699 -2.54257,0.134779 -5.64978,0.0579 -3.2017,-0.0793 -5.71261,-0.0373 -5.79552,0.0966 -0.0805,0.129999 0.58633,0.23778 1.48208,0.23978 2.06055,0.005 5.27144,0.13371 7.9127,0.31833 3.86411,0.270099 2.0505,0.47192 -3.55224,0.39532 -5.72402,-0.0783 -7.97979,0.164299 -4.5837,0.493 1.01865,0.0986 3.2112,0.19377 4.87257,0.211869 1.66135,0.0181 2.93901,0.11455 2.83911,0.214461 -0.0999,0.0998 -2.25469,0.15724 -4.78834,0.12764 -2.60882,-0.0305 -4.67195,0.0528 -4.75785,0.19172 -0.15179,0.24561 1.42573,0.39762 7.25847,0.69866 5.14863,0.265729 3.77314,0.573819 -1.97456,0.44235 -3.61492,-0.0827 -5.43377,-0.0336 -5.43377,0.146759 0,0.1675 1.77423,0.34511 4.64157,0.46458 2.55292,0.10635 4.57747,0.25737 4.49947,0.33537 -0.078,0.078 -2.19646,0.12144 -4.70772,0.0966 -2.51124,-0.0248 -4.41656,0.0525 -4.23437,0.17208 0.18222,0.11953 1.90863,0.2415 3.83646,0.2713 1.92786,0.0298 4.13146,0.12583 4.89737,0.21343 2.86997,0.32832 1.43468,0.49169 -3.60029,0.40979 -6.29769,-0.10244 -6.70312,0.34701 -0.57206,0.63407 4.66717,0.21852 6.69206,0.59676 3.17707,0.59376 -1.23693,-10e-4 -3.36188,-0.0805 -4.72168,-0.17621 -1.3598,-0.0958 -2.52759,-0.0846 -2.59519,0.0248 -0.0676,0.10946 0.38993,0.19864 1.01699,0.19844 1.9848,-6.61e-4 6.82905,0.60604 6.82905,0.85524 0,0.13162 -0.20837,0.18139 -0.46303,0.11059 -0.25466,-0.0708 -1.93594,-0.20917 -3.73569,-0.30747 -2.3436,-0.12799 -3.22102,-0.0969 -3.09283,0.11058 0.0985,0.15931 0.73745,0.29874 1.42007,0.30955 0.68265,0.0108 1.77705,0.11499 2.43189,0.23151 1.06669,0.18977 0.96138,0.21524 -1.00821,0.24494 -2.95928,0.0446 -2.5927,0.55215 0.4284,0.59325 1.26473,0.0172 2.65679,0.12818 3.09335,0.24649 0.51723,0.14024 -0.19748,0.19874 -2.05104,0.16744 -1.56451,-0.0264 -2.84442,0.0259 -2.84427,0.11627 1.7e-4,0.0904 1.20058,0.24946 2.66754,0.35346 1.46696,0.104 2.61615,0.24001 2.55385,0.30231 -0.0624,0.0624 -1.02456,0.12286 -2.13837,0.13436 -1.1389,0.0117 -1.96029,0.12549 -1.87689,0.26045 0.0816,0.13199 0.96791,0.24029 1.96939,0.24029 2.33738,0 2.77703,0.51644 0.47853,0.562241 l -1.66967,0.0336 2.11667,0.31678 c 2.02054,0.3027 2.06261,0.32279 0.92604,0.43925 l -1.19063,0.12196 1.71979,0.244941 c 1.59771,0.227609 1.65408,0.257389 0.79375,0.421169 -0.83347,0.158681 -0.86654,0.19611 -0.33073,0.37207 0.82797,0.27189 0.74774,0.61887 -0.10542,0.45578 -0.48374,-0.0925 -0.64239,-0.0401 -0.51314,0.16898 0.10297,0.16663 0.53734,0.30283 0.96531,0.30283 1.31535,0 0.85964,0.52739 -0.47904,0.55449 l -1.25677,0.0253 1.32292,0.34003 1.32292,0.34003 -1.25678,0.0315 c -1.55906,0.039 -1.67661,0.5538 -0.13229,0.57929 1.92328,0.0318 2.41793,0.46585 0.59532,0.52245 -0.87313,0.0271 -1.40891,0.0871 -1.19063,0.13333 0.21828,0.0462 0.87313,0.17671 1.45521,0.2899 l 1.05833,0.20568 -1.45521,0.15451 c -1.58351,0.16828 -1.39326,0.37012 0.66146,0.70125 l 1.32292,0.2129 -1.32292,0.10801 -1.32291,0.108 1.05833,0.33952 1.05833,0.34003 -0.90382,0.0207 c -0.49718,0.0112 -0.83559,0.0884 -0.75189,0.17208 0.12983,0.12982 0.35934,0.19603 1.25884,0.36122 0.0728,0.0134 -0.0463,0.13953 -0.26459,0.2806 -0.35168,0.227629 -0.3513,0.25645 0.003,0.260451 0.21969,0.0021 0.54845,0.24226 0.73019,0.533299 h -5.3e-4 c 0.47236,0.75637 -0.0905,0.702051 -1.31,-0.1266 -1.80099,-1.22382 -2.84857,-4.28931 -2.2624,-6.62027 0.19242,-0.765231 0.14474,-0.819331 -1.32447,-1.505341 -2.74806,-1.28316 -5.88123,-4.95803 -6.29006,-7.37784 -0.14941,-0.88434 -0.25899,-0.99175 -1.16013,-1.13585 -0.5475,-0.0875 -1.70023,-0.53019 -2.5616,-0.9834 -3.20957,-1.6887 -5.62286,-4.93116 -6.1443,-8.25635 l -0.20722,-1.32085 z m 28.058242,9.893461 c 0.33569,-3.71e-4 0.68154,0.0137 0.95601,0.0424 0.54894,0.0573 0.16444,0.104939 -0.85421,0.105939 -1.01871,10e-4 -1.46753,-0.0454 -0.99787,-0.103869 0.23486,-0.0291 0.56038,-0.0441 0.89607,-0.0444 z m 46.80076,0.787029 c 0.21828,-0.008 0.57547,0.10078 0.79375,0.24184 0.48366,0.31256 0.0659,0.31256 -0.66146,0 -0.3489,-0.14992 -0.39399,-0.23184 -0.13229,-0.24184 z m -30.32941,0.003 c 6.98191,0.11898 13.77168,3.56806 17.80873,9.808711 2.51071,3.881159 3.51161,7.405058 3.51761,12.39097 0.006,4.926139 -1.14432,8.781928 -3.8287,12.832289 -3.1255,4.715961 -7.64785,7.924566 -13.21315,9.374626 -1.55046,0.40397 -2.86663,0.54157 -5.02708,0.52607 -5.23859,-0.0376 -8.8933,-1.22898 -13.00645,-4.24005 -1.39247,-1.019375 -4.67886,-4.219836 -4.50825,-4.390434 0.053,-0.053 0.73769,0.327329 1.52136,0.844909 0.78364,0.517589 2.55581,1.30637 3.93826,1.753378 2.16204,0.699092 2.93899,0.817582 5.55625,0.846982 3.33909,0.0375 5.05674,-0.28142 7.54062,-1.400429 2.73058,-1.230172 4.36563,-3.108463 4.36563,-5.015201 0,-1.003282 0.55336,-1.313331 2.48667,-1.39423 1.22333,-0.0512 1.48208,-0.144521 1.48208,-0.534342 0,-0.259789 -0.17621,-0.472318 -0.39171,-0.472318 -0.21553,0 -0.44623,-0.267891 -0.51263,-0.59531 -0.4168,-2.055521 -0.41422,-2.050521 -1.12603,-2.050521 -0.65887,0 -0.6731,-0.0266 -0.25941,-0.48369 0.69711,-0.7703 0.53302,-1.6964 -0.47956,-2.704229 -1.11332,-1.10803 -1.16962,-1.704211 -0.20722,-2.202972 1.00543,-0.521038 2.14064,-1.855078 2.74918,-3.230808 l 0.5116,-1.156002 -0.67128,-1.260387 c -0.40447,-0.759762 -0.67127,-1.692161 -0.67127,-2.346111 0,-3.501671 -3.44204,-8.3641 -6.77685,-9.573061 -2.30021,-0.833879 -3.72172,-1.10663 -5.80843,-1.113619 -3.50372,-0.0121 -7.80865,1.123129 -10.57249,2.787419 -0.83997,0.50581 -1.57282,0.87406 -1.62832,0.818561 -0.20193,-0.201961 3.26944,-3.208731 4.98936,-4.321701 3.77427,-2.44235 8.03233,-3.56989 12.22148,-3.4985 z m 13.71285,13.264311 c -0.31335,0.006 -0.65787,0.0623 -1.03921,0.164329 -1.40399,0.37552 -3.51089,1.756351 -3.51089,2.30115 0,0.6018 0.46251,0.459859 1.78283,-0.548289 1.34586,-1.027641 2.01027,-1.268751 3.13779,-1.138431 0.96827,0.11191 1.95571,1.536991 1.96681,2.83807 0.007,0.78268 0.0567,0.86936 0.2806,0.48473 0.15,-0.257601 0.19914,-0.734359 0.10904,-1.058849 -0.60064,-2.16399 -1.3691,-3.070491 -2.72697,-3.04271 z m -31.17535,1.07435 c 0.12882,0.0429 0.45942,0.68101 0.73432,1.418 l 0.49971,1.339969 2.00556,0.151929 c 1.1031,0.0834 2.05859,0.204441 2.12339,0.26924 0.0647,0.0648 -0.56736,0.776291 -1.40509,1.581301 l -1.5229,1.46399 0.6904,1.677929 c 0.37976,0.923031 0.64341,1.755953 0.58601,1.851052 -0.0574,0.0951 -0.93519,-0.17634 -1.95079,-0.60306 l -1.8464,-0.77566 -1.47122,1.198369 c -0.80917,0.65908 -1.528,1.19838 -1.59681,1.19838 -0.11763,0 -0.0885,-0.331599 0.26717,-3.085089 0.13639,-1.05587 0.0868,-1.150109 -1.21698,-2.32233 -0.74745,-0.67201 -1.29496,-1.28628 -1.21646,-1.364782 0.0785,-0.0785 0.9822,-0.267337 2.00814,-0.419608 l 1.86552,-0.276471 0.60617,-1.690849 c 0.33345,-0.92976 0.71143,-1.655211 0.84026,-1.61231 z m 28.60032,2.386939 c -0.0288,0.0011 -0.0544,0.008 -0.076,0.02119 -0.45601,0.281829 -0.39232,1.042839 0.0724,0.864539 0.24381,-0.0936 0.58867,0.185219 0.94723,0.765331 0.61306,0.99196 1.07915,1.212319 0.86971,0.41134 -0.20032,-0.76595 -1.38205,-2.077201 -1.81332,-2.0624 z m -1.68362,0.558101 c -0.14137,0.0021 -0.0388,0.283179 0.36845,0.86455 0.49202,0.70245 0.26345,2.993099 -0.29869,2.993099 -0.47332,0 -0.45558,0.14799 0.0956,0.791681 0.45664,0.533278 0.45702,0.533379 0.65319,0.003 0.1239,-0.334952 0.43735,-0.530201 0.8506,-0.530201 0.35988,0 0.72762,-0.11906 0.81752,-0.264581 0.0899,-0.145518 -0.0812,-0.264589 -0.38086,-0.264589 -0.29961,0 -0.54518,-0.122761 -0.54518,-0.272851 0,-0.50754 0.74731,-0.56388 1.44229,-0.108519 0.3801,0.248999 0.77649,0.36096 0.88108,0.248571 0.10459,-0.112401 0.0116,-0.262522 -0.2067,-0.333322 -0.21829,-0.0708 -1.14102,-0.881899 -2.05052,-1.802469 -0.86012,-0.870569 -1.44502,-1.327481 -1.62678,-1.32447 z m -0.52193,6.24458 c -0.32295,0.004 -0.26863,0.130849 0.21807,0.50488 0.58825,0.452089 0.61802,0.566759 0.3173,1.226799 -0.1847,0.405371 -0.2274,0.797179 -0.0966,0.884179 0.12917,0.0859 0.56632,0.728271 0.97203,1.426793 0.6053,1.042299 0.71359,1.485008 0.60255,2.470128 -0.0902,0.800251 -0.0472,1.112251 0.12919,0.935861 0.14552,-0.145521 0.32128,-0.78119 0.39068,-1.412312 0.10825,-0.984027 0.004,-1.315278 -0.73174,-2.32596 -0.61122,-0.839128 -0.84884,-1.442998 -0.82424,-2.097029 0.0384,-1.0214 -0.32535,-1.62234 -0.9772,-1.613339 z m -1.54099,1.35754 c -0.7899,0.0316 -0.84652,0.41842 0.11782,0.561718 0.94107,0.139862 1.15438,0.102582 1.21078,-0.211868 0.0255,-0.14189 -0.40052,-0.29483 -0.9462,-0.340031 -0.14194,-0.0118 -0.26956,-0.01429 -0.3824,-0.01 z m -1.76941,3.49591 c 0.0127,0.006 0.0259,0.01749 0.0393,0.0357 0.10692,0.145518 0.3729,0.264578 0.59118,0.264578 0.51853,0 1.37599,2.556891 0.95239,2.84014 -0.42608,0.284912 -1.21697,0.24465 -1.21697,-0.062 -1e-5,-0.14552 0.1961,-0.264591 0.43563,-0.264591 0.33237,0 0.26971,-0.153897 -0.26459,-0.649049 -0.48707,-0.45144 -0.69908,-0.914249 -0.69608,-1.521349 0.002,-0.41991 0.0704,-0.68194 0.15916,-0.643379 z m 0.26511,5.459619 c -0.64943,0 -1.07927,0.319111 -0.80254,0.595831 0.18915,0.18914 1.14073,-0.0727 1.32033,-0.363291 0.0791,-0.12795 -0.15402,-0.23254 -0.51779,-0.23254 z"
       id="path880-3"
       inkscape:connector-curvature="0"
       sodipodi:nodetypes="cccccccccccccccccscccsccccccccccscccccccsccccsssccsscscscccsccccccccccsccsssccccsccccccccccccccsccsccccccccccccsccccccccccccccscccccccscscsccscccccscccccsccccccccsccsccscsccsccccsccsscccccccccsccscsscssccccccccccccccscccccccsccccscccccccccccsccccccccccssscssccccccccccscccccsccccsccsscccccccccccccccsccsccccccccscccccccscccccccccccccsccccscccsccccscscccscccccccccccsssscccccccsccsccccccsccccccccccsscccccccsccccsccscscccccscsccccccsccccsccsccscccscccccccccsccsccccccccsccssccssccccccscccscscsccscssccccsscccccccccssccsccccccccccscccccccccccccccccccccccccccscccccccscccccccssccccscccccscsscsccccccsccccssccsccccccccccccccscccsccscccccccccccccsccssssccccccccccccscccccccccccccsccsccccsccs" />
  </g>
</svg>
