<?xml version="1.0" encoding="UTF-8" standalone="no"?>
<!-- Created with Inkscape (http://www.inkscape.org/) -->

<svg
   xmlns:dc="http://purl.org/dc/elements/1.1/"
   xmlns:cc="http://creativecommons.org/ns#"
   xmlns:rdf="http://www.w3.org/1999/02/22-rdf-syntax-ns#"
   xmlns:svg="http://www.w3.org/2000/svg"
   xmlns="http://www.w3.org/2000/svg"
   xmlns:sodipodi="http://sodipodi.sourceforge.net/DTD/sodipodi-0.dtd"
   xmlns:inkscape="http://www.inkscape.org/namespaces/inkscape"
   width="298.45169"
   height="299.54547"
   viewBox="0 0 78.965344 79.254742"
   version="1.1"
   id="svg1057"
   inkscape:version="0.92.3 (2405546, 2018-03-11)"
   sodipodi:docname="sun.svg">
  <defs
     id="defs1051" />
  <sodipodi:namedview
     id="base"
     pagecolor="#ffffff"
     bordercolor="#666666"
     borderopacity="1.0"
     inkscape:pageopacity="0.0"
     inkscape:pageshadow="2"
     inkscape:zoom="2.8"
     inkscape:cx="92.277257"
     inkscape:cy="200.64581"
     inkscape:document-units="mm"
     inkscape:current-layer="layer1"
     showgrid="false"
     fit-margin-top="-1"
     fit-margin-left="-1"
     fit-margin-right="0"
     fit-margin-bottom="0"
     inkscape:window-width="1440"
     inkscape:window-height="872"
     inkscape:window-x="0"
     inkscape:window-y="482"
     inkscape:window-maximized="1"
     units="px" />
  <metadata
     id="metadata1054">
    <rdf:RDF>
      <cc:Work
         rdf:about="">
        <dc:format>image/svg+xml</dc:format>
        <dc:type
           rdf:resource="http://purl.org/dc/dcmitype/StillImage" />
        <dc:title></dc:title>
      </cc:Work>
    </rdf:RDF>
  </metadata>
  <g
     inkscape:label="Layer 1"
     inkscape:groupmode="layer"
     id="layer1"
     transform="translate(-62.703257,-28.45135)">
    <path
       style="fill:#000000;stroke-width:0.26458332"
       d="M 62.438674,28.187407 V 106.9025 l 0.699183,0.12609 c 3.64353,0.65668 4.878071,0.77742 6.223911,0.60927 0.833612,-0.10415 1.51567,-0.27373 1.51567,-0.37673 -2e-6,-0.103 -1.398957,-0.22294 -3.108338,-0.26665 -1.70938,-0.0437 -3.157826,-0.12958 -3.218926,-0.19068 -0.379339,-0.37934 0.805489,-0.51157 4.82813,-0.53847 2.497852,-0.0167 4.660905,-0.0654 4.806426,-0.10852 0.145518,-0.0431 -1.640422,-0.21974 -3.968749,-0.39223 l -4.233335,-0.31367 3.042191,-0.0925 c 1.673491,-0.0511 3.893126,-0.0692 4.932515,-0.0403 1.47098,0.041 1.923621,-0.0355 2.042253,-0.34468 0.13204,-0.34405 -0.545029,-0.40272 -5.064808,-0.43822 -4.325771,-0.034 -4.832985,-0.0746 -2.968294,-0.23822 1.23693,-0.10856 3.812318,-0.20936 5.722649,-0.22377 2.88667,-0.0218 3.534666,-0.10039 3.836458,-0.46405 0.334299,-0.40283 0.209987,-0.42224 -1.563214,-0.24753 -2.279319,0.22459 -10.332339,-0.0967 -9.806119,-0.39119 0.200232,-0.11205 3.090899,-0.24284 6.423382,-0.29094 4.321929,-0.0624 6.088398,-0.17666 6.161897,-0.39739 0.07693,-0.23097 -0.883259,-0.2739 -3.786849,-0.17053 -2.139519,0.0762 -4.795413,0.0457 -5.901964,-0.0672 l -2.011762,-0.20516 1.322915,-0.20308 c 0.7276,-0.11161 3.517399,-0.24633 6.200138,-0.29973 3.243648,-0.0646 4.910605,-0.19533 4.975407,-0.38964 0.06898,-0.20695 -1.617017,-0.29836 -5.778976,-0.31316 -5.36826,-0.0191 -6.358205,-0.0842 -6.036323,-0.39842 0.06063,-0.0592 2.849023,-0.18045 6.196004,-0.269753 8.190339,-0.218429 8.284829,-0.69021 0.132292,-0.65991 -3.371392,0.01251 -6.184166,-0.031 -6.250264,-0.0971 -0.113642,-0.113638 8.59801,-0.553659 11.386901,-0.575159 0.71519,-0.006 1.341329,-0.131929 1.391129,-0.280609 0.05911,-0.176332 -1.221537,-0.262541 -3.681947,-0.248042 -2.07472,0.0122 -4.903469,-0.0447 -6.28592,-0.126608 l -2.513542,-0.148831 4.077272,-0.198429 c 2.242329,-0.109141 5.129595,-0.198441 6.416145,-0.198441 1.95341,0 2.338874,-0.0687 2.338874,-0.417031 0,-0.303868 -0.232939,-0.404299 -0.859377,-0.369998 -0.472951,0.0259 -3.003534,0.01791 -5.622915,-0.0176 -4.57182,-0.0619 -4.656059,-0.0722 -2.116148,-0.264591 1.455198,-0.110231 4.008769,-0.253511 5.674588,-0.31781 1.965711,-0.0759 3.064258,-0.224351 3.130558,-0.42323 0.0751,-0.225319 -1.281422,-0.30644 -5.123201,-0.30644 -2.874029,0 -5.156007,-0.0695 -5.071006,-0.154509 0.08499,-0.085 2.387223,-0.233831 5.115964,-0.330732 3.604799,-0.128019 4.991309,-0.26665 5.071009,-0.506949 0.08501,-0.256429 -0.965446,-0.330719 -4.675166,-0.330719 -3.013321,0 -4.784204,-0.098 -4.784204,-0.264591 -2e-6,-0.237519 2.180857,-0.35034 7.474479,-0.386541 0.836848,-0.006 1.521452,-0.084 1.521354,-0.174148 -3.17e-4,-0.28084 -1.882478,-0.491541 -4.416269,-0.494541 -1.337479,-0.0021 -2.505807,-0.122169 -2.595708,-0.267679 -0.105709,-0.171051 1.128226,-0.273841 3.490228,-0.290941 3.792029,-0.0274 4.055599,-0.407109 0.346749,-0.499719 -1.091411,-0.0273 -2.579692,-0.13463 -3.307291,-0.238741 -1.203111,-0.172149 -1.059342,-0.207899 1.5875,-0.39688 1.600729,-0.114269 3.029479,-0.18306 3.175,-0.152959 0.145518,0.0301 0.502708,0.0386 0.79375,0.0191 0.441198,-0.0295 0.46319,-0.0781 0.132291,-0.291968 -0.218281,-0.14106 -1.408914,-0.270099 -2.645833,-0.2868 -3.477601,-0.047 -4.087302,-0.44949 -0.728123,-0.4806 1.564352,-0.0145 2.844271,-0.132691 2.844271,-0.262511 0,-0.129821 -1.220388,-0.32942 -2.711979,-0.4439 -2.330749,-0.17889 -2.562699,-0.236691 -1.653127,-0.41031 0.582078,-0.111109 1.682898,-0.20904 2.446877,-0.217041 0.76399,-0.008 1.389581,-0.13313 1.389581,-0.276989 0,-0.148961 -0.655481,-0.23595 -1.521873,-0.202049 -0.836739,0.0329 -2.414317,0.03 -3.505729,-0.007 -3.083779,-0.103619 -1.719172,-0.57894 1.675868,-0.583941 2.17429,-0.003 2.839802,-0.084 2.755903,-0.334869 -0.07225,-0.21598 -0.699717,-0.336709 -1.808157,-0.348809 -4.025899,-0.0438 -5.004863,-0.12352 -5.004863,-0.406701 0,-0.205859 0.698492,-0.23758 2.355413,-0.10645 1.295458,0.1026 2.605145,0.10723 2.910416,0.01029 1.156859,-0.367159 0.4737,-0.612399 -1.760101,-0.631999 -1.273299,-0.01119 -2.671775,-0.142841 -3.108334,-0.293 -0.606352,-0.208531 -0.184714,-0.240861 1.785936,-0.135911 1.667198,0.0888 2.579169,0.0422 2.579169,-0.132289 0,-0.14845 -0.38644,-0.27296 -0.859377,-0.275961 -1.42236,-0.01 -5.614694,-0.32119 -5.732983,-0.425809 -0.06063,-0.0537 1.070462,-0.0993 2.513541,-0.101291 2.603008,-0.004 3.120943,-0.377899 0.677995,-0.48937 -0.70018,-0.0319 -1.620348,-0.161939 -2.044837,-0.28887 -0.663509,-0.198379 -0.548799,-0.239091 0.815971,-0.289391 1.509668,-0.0556 1.470253,-0.0693 -0.794268,-0.28371 -3.424351,-0.324149 -3.534303,-0.431318 -0.478522,-0.466119 1.483,-0.01691 2.77039,-0.150069 2.86029,-0.295579 0.166828,-0.269949 -0.35089,-0.32929 -2.514059,-0.289391 -0.654842,0.01209 -1.60683,-0.0842 -2.116149,-0.213939 -0.70809,-0.180441 -0.19435,-0.24234 2.182813,-0.263041 1.878118,-0.0164 3.108335,-0.13213 3.108335,-0.29197 0,-0.155919 -0.950277,-0.2662 -2.314585,-0.2682 -1.273312,-0.0021 -2.494217,-0.126649 -2.712498,-0.276469 -0.288481,-0.198001 0.07336,-0.261271 1.323435,-0.23047 2.885048,0.071 3.96875,-0.006 3.96875,-0.283189 0,-0.15603 -1.058368,-0.278162 -2.579687,-0.297662 -2.170653,-0.0279 -2.390904,-0.0667 -1.389063,-0.244948 0.654839,-0.11652 1.87523,-0.220711 2.711979,-0.231511 0.83674,-0.0108 1.521354,-0.1387 1.521354,-0.28421 0,-0.24574 -1.578618,-0.380981 -3.215309,-0.275439 -0.385749,0.0249 -0.779596,-0.0812 -0.875398,-0.236162 -0.11767,-0.19037 0.517161,-0.282149 1.958021,-0.282149 1.245128,0 2.132686,-0.11009 2.132686,-0.264591 -2e-6,-0.153379 -0.852897,-0.264578 -2.028817,-0.264578 -1.115659,0 -1.939004,-0.0893 -1.829862,-0.19844 0.244299,-0.244251 0.332977,-0.256652 2.138888,-0.297651 0.800359,-0.0182 1.455208,-0.122881 1.455208,-0.233069 -3e-6,-0.110191 -0.510439,-0.159671 -1.134298,-0.110072 -0.62386,0.0496 -1.546592,-0.0285 -2.050521,-0.173109 -0.891002,-0.255619 -0.874331,-0.263962 0.605132,-0.31936 1.903219,-0.0712 1.962986,-0.0804 2.204516,-0.32195 0.109138,-0.109141 -0.743969,-0.206841 -1.89601,-0.217041 -1.15204,-0.01019 -2.332571,-0.120909 -2.623611,-0.24598 -0.355281,-0.152678 0.187628,-0.233479 1.653129,-0.245978 2.499578,-0.0213 2.995463,-0.430033 0.591695,-0.48782 -0.875401,-0.02101 -1.79814,-0.164073 -2.050521,-0.318333 -0.35524,-0.217152 -0.146556,-0.26811 0.923976,-0.225311 0.760589,0.0304 1.464868,-0.0267 1.565276,-0.127119 0.100412,-0.100471 -0.367479,-0.182941 -1.039727,-0.182941 -1.344051,0 -2.464704,-0.40213 -2.679424,-0.9617 -0.10567,-0.275331 0.175741,-0.361209 1.186492,-0.361209 2.235491,0 4.258362,1.364959 5.293732,3.57187 0.686969,1.46422 0.677249,4.05593 -0.02067,5.423961 -0.291042,0.570489 -0.529167,1.090258 -0.529167,1.154969 -3e-6,0.0647 0.52529,0.425731 1.167368,0.802011 2.74379,1.607978 4.035248,3.274028 5.455999,7.038848 l 0.948262,2.513541 1.439706,0.172599 c 0.791721,0.0948 2.213607,0.103319 3.159498,0.0191 l 1.719792,-0.152959 -1.819529,-0.33951 c -2.0701,-0.386231 -2.758268,-0.77251 -0.958596,-0.537962 3.111547,0.40554 4.7625,0.489641 4.7625,0.242372 -3e-6,-0.143672 -0.815467,-0.341569 -1.811777,-0.439769 -0.996299,-0.0982 -2.157169,-0.292003 -2.579687,-0.430983 -0.651672,-0.21431 -0.58057,-0.233749 0.467672,-0.128159 0.679648,0.0685 2.227463,0.18478 3.439583,0.258382 l 2.204,0.133329 -2.724382,-0.5054 c -4.550431,-0.844711 -4.341937,-0.883009 1.617472,-0.296621 0.992121,0.0976 1.852728,0.0991 1.912027,0.003 0.0593,-0.0959 -0.63354,-0.251708 -1.539441,-0.345709 -3.201858,-0.332381 -3.39272,-0.656141 -0.324009,-0.549331 l 2.910417,0.10129 -2.645834,-0.381889 c -1.455211,-0.21023 -2.824429,-0.437581 -3.042708,-0.50488 -0.551532,-0.17009 5.30769,0.11939 5.920052,0.292489 0.320119,0.0905 0.431549,0.0361 0.314709,-0.152958 -0.09957,-0.161111 -0.560912,-0.298411 -1.025261,-0.305412 -0.464359,-0.007 -1.617779,-0.171209 -2.563667,-0.36535 -2.049711,-0.420708 -1.020524,-0.5051 2.116667,-0.17363 1.091409,0.115261 2.1555,0.12014 2.36523,0.0109 0.22108,-0.11521 -0.451144,-0.27631 -1.599904,-0.383961 -1.089729,-0.102118 -2.690133,-0.339449 -3.556371,-0.5271 -1.486691,-0.322019 -1.35206,-0.33564 2.39417,-0.238739 4.467188,0.115531 4.318701,-0.23332 -0.228928,-0.53795 -1.580909,-0.1059 -3.128804,-0.30306 -3.439583,-0.438219 -0.38803,-0.16877 0.01536,-0.205761 1.287261,-0.118862 5.086228,0.34756 6.855828,0.3912 6.35,0.157102 -0.291052,-0.134702 -1.087795,-0.253352 -1.770436,-0.263551 -0.68263,-0.01021 -1.314666,-0.137671 -1.404564,-0.283181 -0.18524,-0.299768 1.3041,-0.34915 2.844271,-0.0946 1.158078,0.191411 1.24292,0.560761 0.463021,2.01589 -0.291042,0.543031 -0.529167,1.028192 -0.529167,1.078492 0,0.0502 0.48487,0.236749 1.077968,0.414449 1.10086,0.329819 2.626199,0.17853 2.626199,-0.260451 0,-0.133959 0.238125,-0.243398 0.529166,-0.243398 0.291047,0 0.529167,-0.11906 0.529167,-0.264581 0,-0.145521 -0.4098,-0.26458 -0.91054,-0.26458 -0.500729,-1.1e-5 -0.976934,-0.10754 -1.058333,-0.239271 -0.08463,-0.137099 0.559755,-0.197808 1.505333,-0.14211 l 1.65417,0.0971 -1.23662,-0.320911 c -0.680024,-0.176511 -1.31767,-0.403111 -1.416971,-0.50333 -0.28458,-0.28724 2.729811,0.02479 4.778521,0.494549 1.22901,0.281791 2.28234,0.363302 3.10265,0.240292 1.57395,-0.23603 1.89642,-0.68471 0.49196,-0.68471 -0.58209,0 -1.11459,-0.0912 -1.18339,-0.202571 -0.0688,-0.111299 0.78748,-0.17876 1.90273,-0.14986 l 2.02778,0.0527 -1.5875,-0.234611 c -0.87312,-0.129159 -2.28259,-0.310028 -3.13159,-0.401529 -2.64987,-0.285581 -1.48253,-0.38826 1.82573,-0.160711 3.79846,0.261271 4.60247,-0.0547 1.13068,-0.444421 l -2.47065,-0.277497 2.77761,0.105928 c 1.52796,0.0584 2.95671,-0.007 3.175,-0.14469 0.28345,-0.17944 0.0188,-0.25904 -0.92605,-0.27854 -0.7276,-0.015 -1.91823,-0.119729 -2.64583,-0.233058 -1.10612,-0.172241 -0.82428,-0.215982 1.71979,-0.264581 3.62124,-0.0691 3.04396,-0.394851 -1.28261,-0.72399 l -2.81843,-0.21445 3.70417,-0.133331 c 3.47585,-0.12491 3.60224,-0.147328 2.05052,-0.364839 -2.20438,-0.30897 -2.17516,-0.790501 0.0336,-0.553969 1.12821,0.12083 1.74746,0.0841 1.8681,-0.111101 0.11993,-0.194062 -0.20173,-0.302692 -0.95963,-0.323501 -1.22899,-0.0337 -2.98339,-0.400719 -2.33112,-0.48782 0.21828,-0.0291 1.08149,-0.0351 1.91823,-0.01288 0.93,0.02468 1.52135,-0.0697 1.52135,-0.24288 0,-0.155821 -0.40693,-0.283181 -0.90434,-0.283181 -1.74708,0 -1.9531,-0.389699 -0.28629,-0.54157 l 1.5875,-0.144701 -1.38906,-0.220139 c -0.76398,-0.12107 -1.38906,-0.32884 -1.38906,-0.461991 0,-0.133149 0.14883,-0.22307 0.33073,-0.19947 0.1819,0.0236 0.74745,0.0172 1.25677,-0.0145 0.84337,-0.0526 0.86699,-0.075 0.26458,-0.247531 l -0.66146,-0.189129 0.79375,-0.15762 c 0.43656,-0.0867 0.84633,-0.10641 0.91003,-0.0434 0.0637,0.063 0.16727,0.830069 0.23047,1.70429 0.0944,1.305779 0.19191,1.569029 0.54571,1.477431 0.23687,-0.0614 1.01761,-0.264401 1.73478,-0.451652 l 1.30379,-0.340548 -1.03921,-0.344162 -1.03973,-0.34417 1.51825,0.108011 c 0.83478,0.0592 1.58585,-0.003 1.66915,-0.13798 0.0852,-0.13792 -0.42704,-0.244941 -1.1715,-0.244941 -0.7276,0 -1.39684,-0.119068 -1.48674,-0.264589 -0.10342,-0.167341 0.64459,-0.276971 2.03502,-0.298169 l 2.19832,-0.0331 -1.85209,-0.234609 c -2.70515,-0.342199 -2.67868,-0.443889 0.1323,-0.508489 l 2.51354,-0.0579 -2.18281,-0.254249 c -1.20055,-0.139811 -2.1828,-0.33121 -2.18282,-0.425809 -2e-5,-0.0945 1.0232,-0.129421 2.27377,-0.0775 2.98689,0.123891 3.51775,-0.354259 0.63975,-0.576189 -3.49407,-0.26942 -3.49613,-0.692229 -0.003,-0.566891 l 3.04271,0.109562 -2.38125,-0.494551 -2.38125,-0.49402 2.64583,-0.0667 2.64584,-0.0672 -2.51355,-0.200499 c -4.15494,-0.331412 -4.45898,-0.801772 -0.39687,-0.61392 2.42456,0.112119 3.36151,0.0763 3.175,-0.121952 -0.14552,-0.154718 -1.36965,-0.364408 -2.72025,-0.466119 -3.55161,-0.26751 -3.28901,-0.659771 0.32453,-0.48473 2.15468,0.10437 3.05718,0.061 3.05718,-0.146251 0,-0.161748 -0.14883,-0.267949 -0.33073,-0.236159 -0.58764,0.102661 -4.43176,-0.35582 -4.43229,-0.528641 -2.6e-4,-0.0923 1.21869,-0.128968 2.70888,-0.0822 1.49019,0.0468 2.62615,0.0011 2.52439,-0.100248 -0.10175,-0.101751 -1.17192,-0.23082 -2.37814,-0.287322 -1.20623,-0.0565 -2.55034,-0.219469 -2.9869,-0.36226 -0.57903,-0.18938 0.0472,-0.23047 2.3151,-0.15037 3.37564,0.119181 4.20078,-0.191199 1.32292,-0.49765 -2.92944,-0.311938 -3.14953,-0.675089 -0.33073,-0.5457 2.21031,0.10146 2.35394,0.0831 1.19062,-0.152958 -3.16028,-0.6413 -3.28192,-0.72884 -0.98547,-0.710042 2.57741,0.02109 3.02044,-0.16882 1.06041,-0.454749 -1.38882,-0.202589 -1.39229,-0.205531 -0.49558,-0.407731 0.49643,-0.111998 1.05033,-0.146609 1.23041,-0.0775 0.18008,0.0691 0.40568,-0.0021 0.50178,-0.157099 0.10726,-0.173551 -0.11205,-0.28987 -0.56844,-0.301271 -0.40877,-0.01021 -0.98123,-0.12092 -1.27227,-0.24598 -0.40231,-0.172879 -0.21203,-0.24206 0.79375,-0.288359 1.10404,-0.0509 1.16971,-0.0787 0.39687,-0.169492 -0.50932,-0.0599 -1.0451,-0.23503 -1.19062,-0.389128 -0.18465,-0.195511 0.0221,-0.236741 0.68419,-0.136941 0.52181,0.0787 1.10912,0.0438 1.30535,-0.0775 0.24397,-0.150779 0.0695,-0.255228 -0.5519,-0.330719 l -0.90848,-0.110591 0.8599,-0.0424 c 0.59584,-0.0293 0.85989,-0.173051 0.85989,-0.46767 0,-0.302659 -0.1334,-0.36904 -0.46302,-0.230481 -0.25467,0.10704 -0.76068,0.244412 -1.12448,0.305411 -0.56716,0.0951 -0.53349,0.0397 0.23617,-0.39067 l 0.89762,-0.502301 -1.09606,-0.175178 c -1.79646,-0.287271 -1.25917,-0.695952 0.95446,-0.726051 l 2.05052,-0.0279 -2.03501,-0.309539 c -1.11927,-0.170191 -2.11734,-0.39134 -2.21796,-0.491961 -0.10062,-0.1007 1.05326,-0.132929 2.56419,-0.0718 l 2.74712,0.111099 -1.90015,-0.318839 c -1.04487,-0.175199 -1.98728,-0.407631 -2.09444,-0.516761 -0.10717,-0.10914 0.92618,-0.20955 2.2965,-0.22325 l 2.49184,-0.02479 -1.81953,-0.361741 c -2.46054,-0.488929 -2.55288,-0.71569 -0.21084,-0.51883 1.76886,0.148691 3.1748,0.0021 2.87269,-0.300238 -0.068,-0.068 -0.90857,-0.169291 -1.86758,-0.22479 -2.98729,-0.173022 -3.0588,-0.64471 -0.0992,-0.653711 2.77408,-0.009 3.58204,-0.367369 1.03921,-0.461471 -0.84648,-0.0313 -1.82852,-0.172839 -2.1823,-0.31419 -0.48915,-0.19549 -0.0566,-0.261088 1.80454,-0.273881 2.89377,-0.01979 3.32038,-0.399237 0.50023,-0.444939 -1.06971,-0.0173 -2.17055,-0.162301 -2.44636,-0.322458 -0.39032,-0.226642 0.0671,-0.293211 2.06292,-0.299212 1.41473,-0.004 2.63729,-0.126871 2.72748,-0.272849 0.1018,-0.164701 -0.4168,-0.266171 -1.37356,-0.267171 -1.90311,-0.003 -4.31523,-0.280498 -4.31549,-0.49712 -1.2e-4,-0.0886 1.11842,-0.131451 2.48563,-0.0941 1.36721,0.0374 2.7666,-0.0391 3.10937,-0.17053 0.46453,-0.17803 0.11794,-0.243551 -1.36115,-0.257341 -3.00366,-0.0279 -6.24361,-0.544381 -5.79913,-0.9245 0.0606,-0.0519 1.75568,0.02331 3.76618,0.167439 4.9833,0.357233 5.39855,-0.116099 0.52451,-0.597897 -5.44695,-0.538422 -5.77851,-0.794501 -0.80667,-0.622702 2.61795,0.0904 4.43177,0.0537 4.43177,-0.0894 0,-0.13326 -0.6846,-0.25649 -1.52135,-0.273889 -2.09098,-0.0434 -7.16912,-0.592151 -8.13594,-0.87953 -0.58095,-0.17268 -0.29722,-0.205341 1.05833,-0.12144 6.33753,0.39234 8.59896,0.43379 8.59896,0.1571 0,-0.17832 -0.58981,-0.29071 -1.52135,-0.28991 -1.8198,0.002 -6.70466,-0.48681 -8.00365,-0.800471 -0.5392,-0.130199 1.25687,-0.159259 4.29948,-0.0698 3.76447,0.110691 5.22552,0.0708 5.22552,-0.142109 0,-0.16258 -0.1869,-0.22393 -0.41496,-0.136421 -0.43516,0.166981 -6.97114,-0.346089 -9.24233,-0.725539 -0.79819,-0.1333 0.8022,-0.163901 4.0349,-0.077 4.05821,0.109141 5.35781,0.0674 5.35781,-0.17208 0,-0.175009 -0.18054,-0.24672 -0.40463,-0.160719 -0.22262,0.0854 -2.3955,-0.0205 -4.82864,-0.23512 -2.43314,-0.214641 -4.57285,-0.39091 -4.75475,-0.391711 -0.1819,-7.4e-4 -0.33073,-0.128379 -0.33073,-0.2837 0,-0.155339 0.20836,-0.223969 0.46302,-0.152969 0.71387,0.19901 8.15596,0.50825 7.98401,0.33177 -0.0835,-0.0857 -1.92898,-0.350641 -4.10104,-0.58912 -2.17206,-0.23847 -4.06817,-0.55265 -4.2137,-0.698151 -0.17636,-0.176359 -0.044,-0.214149 0.39688,-0.112649 0.3638,0.0837 1.91161,0.22196 3.43958,0.306959 1.52797,0.085 3.46274,0.216371 4.29948,0.291971 0.88109,0.0796 1.52135,0.0314 1.52135,-0.114211 0,-0.138249 -1.04179,-0.318699 -2.3151,-0.400999 -3.35502,-0.21684 -5.82001,-0.540521 -6.06785,-0.796851 -0.11877,-0.1228 1.5997,-0.136959 3.81889,-0.0315 2.90194,0.137869 4.0349,0.109009 4.0349,-0.102831 0,-0.17751 -0.53182,-0.29456 -1.33842,-0.29456 -1.99281,0 -6.42808,-0.56759 -6.73138,-0.86144 -0.17247,-0.1671 -0.0804,-0.207229 0.26459,-0.11473 1.03759,0.27812 6.87916,0.320741 6.87916,0.0501 0,-0.14556 -0.17859,-0.23259 -0.39687,-0.193789 -0.59884,0.106559 -6.11522,-0.49453 -6.73499,-0.733801 -0.29774,-0.114909 1.11423,-0.14262 3.13779,-0.062 4.38598,0.17472 4.85961,-0.29102 0.58705,-0.57722 -4.0303,-0.26998 -5.03007,-0.710431 -1.28933,-0.56793 1.741,0.0663 2.97656,0.0112 2.97656,-0.132791 0,-0.135419 -0.50602,-0.25482 -1.12448,-0.26562 -0.61847,-0.0108 -1.66025,-0.115009 -2.3151,-0.231509 -1.12541,-0.200291 -1.08482,-0.21365 0.74311,-0.244951 2.14142,-0.0367 2.46342,-0.54877 0.36586,-0.581869 -0.68263,-0.0108 -1.77705,-0.115011 -2.43189,-0.231511 -1.00184,-0.17828 -0.78158,-0.21707 1.38907,-0.24495 1.59448,-0.0205 2.57968,-0.138329 2.57968,-0.309039 0,-0.151891 -0.14883,-0.247281 -0.33073,-0.211871 -0.54915,0.10691 -3.61359,-0.31687 -3.73724,-0.51676 -0.0634,-0.1029 0.88531,-0.1438 2.1084,-0.0925 1.50053,0.0629 2.22416,-0.002 2.22416,-0.198439 0,-0.164441 -0.49067,-0.297941 -1.12448,-0.306971 -0.61846,-0.008 -1.60073,-0.11419 -2.18282,-0.2346 -0.90827,-0.18783 -0.74885,-0.222969 1.12448,-0.24908 2.63438,-0.0367 2.98662,-0.55089 0.39688,-0.57928 -0.98226,-0.0108 -2.32172,-0.11501 -2.97656,-0.23151 -0.97112,-0.172799 -0.62968,-0.22431 1.85208,-0.28062 l 3.04271,-0.0692 -2.91042,-0.373111 c -4.08938,-0.52441 -4.70226,-0.629209 -4.55166,-0.77978 0.0729,-0.0729 1.66093,-0.0109 3.5295,0.13848 1.86856,0.14941 3.49613,0.17341 3.61632,0.0532 0.12019,-0.1202 -0.77176,-0.29953 -1.98179,-0.39843 -3.60094,-0.29433 -4.7122,-0.47374 -4.55115,-0.73433 0.0838,-0.1357 0.46892,-0.184309 0.85525,-0.108 1.15862,0.22873 5.2002,0.28342 5.2002,0.0703 0,-0.10887 -1.46616,-0.26061 -3.25768,-0.336919 -1.79153,-0.0763 -3.75607,-0.246251 -4.36563,-0.37827 -0.77664,-0.168231 0.0401,-0.206431 2.72852,-0.127641 2.11005,0.0618 4.07458,0.007 4.36562,-0.12194 0.62867,-0.27811 0.6769,-0.26382 -1.32292,-0.39535 -3.74098,-0.24603 -8.46378,-0.71117 -8.59224,-0.84645 -0.0765,-0.0805 1.58739,-0.0481 3.69745,0.0723 5.08204,0.29006 5.92842,0.28609 6.08542,-0.0279 0.11405,-0.22812 -2.52039,-0.43836 -7.88686,-0.62995 -0.48153,-0.0172 -0.82084,-0.12081 -0.75344,-0.22995 0.0674,-0.10919 1.89051,-0.11816 4.05091,-0.0202 2.30805,0.1047 4.03139,0.0774 4.17908,-0.0661 0.15562,-0.15116 0.004,-0.24551 -0.39688,-0.24649 -1.20945,-0.004 -8.05103,-0.51914 -9.06663,-0.68215 -2.05179,-0.3293 -0.67565,-0.36533 3.92173,-0.10231 2.90866,0.16639 4.81616,0.17576 4.96765,0.0243 0.25308,-0.253079 -1.12773,-0.404549 -6.50296,-0.71366 -4.4218,-0.25427 -4.74262,-0.59021 -0.4501,-0.47128 2.11006,0.0585 4.40201,0.15785 5.09323,0.220661 0.69123,0.0628 1.25677,0.0133 1.25677,-0.110061 0,-0.12335 -1.87524,-0.30351 -4.16719,-0.4005 -6.74297,-0.28528 -7.87957,-0.646169 -1.65364,-0.52504 3.309,0.0644 5.16604,0.0143 4.7625,-0.12764 -0.3638,-0.128011 -1.67349,-0.260041 -2.91042,-0.293541 -1.23692,-0.0335 -3.14192,-0.15322 -4.23333,-0.26611 -1.49728,-0.15492 -0.89654,-0.19032 2.4474,-0.14471 2.43747,0.0332 4.43177,-0.0375 4.43177,-0.1571 0,-0.11957 -0.32743,-0.21913 -0.72761,-0.22014 -2.18031,-0.007 -9.43265,-0.55949 -9.76167,-0.74361 -0.22253,-0.12451 0.26245,-0.18246 1.14928,-0.13695 4.28448,0.21969 8.54625,0.24255 8.54625,0.046 0,-0.12176 -1.16086,-0.23379 -2.57969,-0.24958 -1.41883,-0.0158 -3.29406,-0.12735 -4.16719,-0.24755 -1.13297,-0.15594 -0.4594,-0.19018 2.35231,-0.11938 5.11653,0.12883 4.74269,-0.30692 -0.50177,-0.58497 l -3.9672,-0.21031 3.96875,-0.14108 3.96875,-0.1416 1.34875,1.28365 c 0.742,0.70585 1.89473,2.19996 2.56108,3.3202 1.12683,1.89431 2.57246,5.55104 2.57246,6.50711 0,0.51292 -0.15228,0.52467 1.8743,-0.13954 2.0422,-0.66934 2.62361,-0.96208 2.62361,-1.32085 0,-0.14896 -0.11906,-0.19738 -0.26458,-0.10748 -0.14552,0.0899 -0.26458,0.0373 -0.26458,-0.11678 0,-0.15412 0.40981,-0.28009 0.91054,-0.28009 0.50074,0 0.98393,-0.11906 1.07383,-0.26459 0.0957,-0.15478 -0.17884,-0.26458 -0.66146,-0.26458 -0.48261,0 -0.75715,-0.1098 -0.66145,-0.26458 0.0899,-0.14552 0.57787,-0.26459 1.08469,-0.26459 0.55577,0 1.14726,-0.21002 1.48983,-0.52916 l 0.56792,-0.52917 -1.57148,-0.0186 c -2.06414,-0.0245 -1.14541,-0.46567 1.02423,-0.49196 1.56626,-0.019 1.94141,-0.44742 0.42943,-0.49041 -1.49078,-0.0424 -1.16902,-0.32195 0.37052,-0.32195 0.82462,0 1.49965,-0.11906 1.49965,-0.26458 0,-0.15094 -0.88077,-0.27771 -2.05052,-0.29559 -1.12779,-0.0172 -2.4077,-0.12615 -2.84427,-0.24186 -0.45818,-0.12149 0.32479,-0.15356 1.85208,-0.076 1.54525,0.0786 2.92098,0.0209 3.30729,-0.13848 0.56593,-0.23358 0.43218,-0.2775 -0.92604,-0.30491 -0.87313,-0.0176 -2.06374,-0.13538 -2.64583,-0.26199 -0.84942,-0.18468 -0.61441,-0.21815 1.19062,-0.16796 1.23693,0.0344 2.54661,-0.0218 2.91042,-0.12504 0.45816,-0.13001 0.13289,-0.20391 -1.05834,-0.24029 -0.94588,-0.0289 -2.37463,-0.14309 -3.175,-0.25374 -1.24148,-0.17158 -1.00832,-0.20717 1.5875,-0.24236 3.58607,-0.0487 5.02384,-0.53726 1.7198,-0.58446 -1.16416,-0.0166 -2.77152,-0.12086 -3.57188,-0.23151 -1.24368,-0.1719 -0.9937,-0.21019 1.71979,-0.26458 5.04874,-0.10118 4.94367,-0.42688 -0.19637,-0.60926 -2.58176,-0.0916 -4.86533,-0.26225 -5.07462,-0.37931 -0.20929,-0.1171 1.99253,-0.17097 4.89272,-0.11938 2.90018,0.0516 5.27281,-0.008 5.27255,-0.13229 -2.7e-4,-0.12433 -1.16121,-0.25794 -2.57969,-0.29715 -1.41848,-0.0392 -3.4126,-0.17272 -4.43125,-0.2966 -0.27201,-0.0331 2.88138,-0.0617 7.953,-0.0873 V 28.186827 H 84.492109 c 0.08,0.1719 -0.106973,0.73599 -0.564308,1.67535 -1.259808,2.58762 -4.916858,5.75675 -7.033678,6.09523 -0.80241,0.12832 -0.982131,0.25352 -0.84491,0.58962 0.75973,1.86079 0.719579,3.46948 -0.149863,5.99654 -0.936458,2.72188 -3.420652,5.78574 -5.576403,6.87814 -0.674149,0.34162 -1.867068,0.68613 -2.651,0.76533 -1.332669,0.13471 -1.365026,0.12471 -0.499195,-0.15193 l 0.926042,-0.29559 -0.840775,-0.29714 c -1.432329,-0.50645 -1.22203,-0.61125 0.972551,-0.48421 1.321278,0.0765 2.117183,0.0226 2.117183,-0.14314 0,-0.2911 -1.227681,-0.59635 -2.398819,-0.59635 -0.409782,0 -0.804035,-0.0957 -0.876433,-0.21291 -0.0724,-0.11713 0.961965,-0.17755 2.299084,-0.13435 2.731072,0.0882 2.705074,-0.037 -0.121956,-0.5855 l -1.944585,-0.37724 2.711979,0.12713 c 3.02547,0.14195 3.698636,-0.23734 0.944644,-0.53227 -2.95076,-0.31599 -3.052714,-0.63569 -0.150894,-0.47337 1.956739,0.10946 2.711979,0.0673 2.711979,-0.15242 0,-0.19997 -0.658739,-0.31131 -1.918229,-0.32351 -1.055028,-0.0102 -2.156354,-0.13099 -2.447395,-0.26871 -0.352899,-0.16703 0.324143,-0.20346 2.032434,-0.10956 2.831239,0.1556 3.81066,-0.24199 1.344619,-0.54571 -2.633559,-0.32435 -2.690518,-0.5861 -0.09612,-0.44129 1.833009,0.10228 2.437344,0.0594 2.299086,-0.16434 -0.103191,-0.16695 -0.626634,-0.31572 -1.163754,-0.33022 -0.53711,-0.0145 -1.274345,-0.12171 -1.638143,-0.23823 -0.474769,-0.15206 -0.101384,-0.22636 1.322915,-0.26356 l 1.984375,-0.0517 -1.322916,-0.34001 -1.322917,-0.34005 1.190625,-0.0357 c 1.53261,-0.0457 2.432217,-0.54642 0.992188,-0.55243 -0.545701,-0.002 -0.992188,-0.13094 -0.992188,-0.28628 0,-0.15533 0.220977,-0.2123 0.490926,-0.1266 0.26996,0.0857 0.77597,0.0417 1.12448,-0.0977 0.348519,-0.13943 0.574061,-0.26992 0.501261,-0.2899 -0.07276,-0.0201 -0.42277,-0.0898 -0.77773,-0.15505 -0.972931,-0.1788 -1.004382,-0.37155 -0.06046,-0.37155 0.460822,0 0.838192,-0.11906 0.838192,-0.26458 0,-0.14553 -0.416722,-0.26459 -0.926042,-0.26459 -0.50932,0 -0.926042,-0.11906 -0.926042,-0.26458 0,-0.14552 0.506011,-0.2667 1.12448,-0.26871 0.823499,-0.003 1.018254,-0.0726 0.727604,-0.26046 -0.218279,-0.14107 -0.657855,-0.25844 -0.976683,-0.26045 -0.318842,-0.002 -0.649206,-0.11631 -0.733806,-0.25321 -0.09078,-0.14692 0.214505,-0.18883 0.744656,-0.10284 0.527691,0.0856 0.973397,0.0248 1.080037,-0.14777 0.116412,-0.18839 -0.08512,-0.2952 -0.561721,-0.29819 -0.40877,-0.002 -0.921702,-0.1257 -1.139983,-0.2744 -0.286398,-0.1951 -0.120677,-0.22251 0.595312,-0.0987 0.605901,0.10477 0.992188,0.0674 0.992188,-0.0961 0,-0.14727 -0.446477,-0.38632 -0.992188,-0.53126 l -0.992187,-0.26352 0.859896,-0.0274 c 1.153699,-0.0367 1.106357,-0.55655 -0.05064,-0.55655 -0.500732,0 -0.988472,-0.12632 -1.084172,-0.28112 -0.11783,-0.19064 0.132799,-0.22382 0.777729,-0.10285 1.448001,0.27168 1.166657,-0.30594 -0.304374,-0.62476 -1.050128,-0.22759 -0.821748,-0.24826 1.389063,-0.12607 1.522449,0.0841 2.552046,0.0468 2.425176,-0.0873 -0.121272,-0.12824 -0.299876,-0.24008 -0.396875,-0.24908 -2.56994,-0.23667 -4.012676,-0.48861 -4.012676,-0.70075 0,-0.1465 0.267893,-0.20092 0.595312,-0.12091 1.451261,0.35472 5.225521,0.50853 5.225521,0.21291 0,-0.16934 -0.433917,-0.30666 -0.992187,-0.31263 -0.545709,-0.006 -1.706568,-0.17918 -2.579688,-0.38397 l -1.5875,-0.37258 1.852083,0.12866 c 1.018651,0.0706 2.347233,0.18926 2.952793,0.26408 0.605559,0.0747 1.170836,0.0237 1.255736,-0.11369 0.08863,-0.1434 -0.728623,-0.32832 -1.917713,-0.43357 -3.375269,-0.29877 -3.215394,-0.69474 0.222726,-0.5519 l 3.042708,0.12661 -2.248958,-0.35349 c -3.68727,-0.57943 -3.721089,-0.63992 -0.330729,-0.59272 1.782641,0.0248 3.241146,-0.0336 3.241146,-0.12969 -1.1e-5,-0.0961 -1.041805,-0.25088 -2.315105,-0.34417 -4.036578,-0.29589 -4.400735,-0.61701 -0.529166,-0.46665 2.360461,0.0917 3.638021,0.0474 3.638021,-0.12557 0,-0.26276 -2.955126,-0.60875 -5.199166,-0.60875 -0.632889,0 -1.150834,-0.094 -1.150834,-0.20929 0,-0.11528 1.473239,-0.16269 3.274218,-0.10491 2.21129,0.071 3.333573,0.0104 3.455604,-0.18706 0.125569,-0.2032 -0.409551,-0.29308 -1.75338,-0.29506 -2.427621,-0.004 -4.088437,-0.25776 -3.611669,-0.55242 0.191101,-0.11811 1.509827,-0.1455 2.930054,-0.061 1.88917,0.11245 2.690522,0.0636 2.986382,-0.1819 0.10106,-0.0839 0.186086,-0.14364 0.258384,-0.18397 z m 68.549306,1.81073 c 0.68264,-0.0191 1.31466,0.0845 1.40456,0.22998 0.18132,0.29334 -0.32609,0.29334 -1.71979,0 -0.91012,-0.19156 -0.90458,-0.19577 0.31523,-0.22998 z m 2.0438,1.85002 c 0.0919,0.004 0.17103,0.0279 0.21498,0.0718 0.0879,0.0879 -0.0684,0.15052 -0.34727,0.13901 -0.30823,-0.0127 -0.37075,-0.0752 -0.15968,-0.15968 0.0955,-0.0382 0.20005,-0.0549 0.29197,-0.0512 z m -35.28105,1.17099 c 0.332362,0.008 0.403707,0.34351 -0.06563,0.60617 -0.41662,0.23315 -0.394911,0.3453 0.258898,1.33326 0.392692,0.5934 0.714168,1.14107 0.714168,1.21697 0,0.0759 -0.535773,0.13798 -1.190625,0.13798 -0.654838,0 -1.190625,-0.0538 -1.190625,-0.11938 0,-0.90863 0.675876,-2.85125 1.064536,-3.05924 0.158392,-0.0848 0.298489,-0.11845 0.409276,-0.11576 z m -9.712584,1.72445 c 0.03887,0.0174 0.0016,0.15682 -0.08113,0.43305 -0.143121,0.47786 0.01494,0.70326 0.875398,1.24642 1.42974,0.90258 1.549017,1.18851 0.577226,1.38287 -0.449239,0.0899 -0.880814,0.26705 -0.959115,0.39378 -0.32898,0.53229 -0.621922,0.14309 -0.93069,-1.23661 -0.295371,-1.31984 -0.281258,-1.51243 0.141591,-1.91823 0.222642,-0.21367 0.337855,-0.31866 0.376722,-0.30128 z m 28.579654,0.016 c 0.14387,0.002 0.27837,0.0211 0.36793,0.0574 0.17913,0.0725 -0.0316,0.12698 -0.46819,0.12198 -0.43656,-0.005 -0.58299,-0.0647 -0.32556,-0.13179 0.12872,-0.0335 0.28195,-0.0494 0.42582,-0.0476 z m -9.26869,0.85318 c 0.0803,0.002 0.15766,0.0171 0.22893,0.0481 0.45323,0.19674 0.453,0.209821 -0.003,0.31832 -0.40396,0.0961 -0.44952,0.290121 -0.30076,1.282091 0.18934,1.26259 0.11896,1.316229 -1.06608,0.810819 -0.52162,-0.22249 -0.67663,-0.401299 -0.46302,-0.533319 0.17659,-0.10914 0.32142,-0.41085 0.32142,-0.67075 0,-0.615051 0.72049,-1.26756 1.28261,-1.255231 z m 26.99577,0.20515 c 0.14387,0.002 0.27837,0.0211 0.36794,0.0574 0.17913,0.0725 -0.0316,0.12697 -0.46819,0.12197 -0.43656,-0.005 -0.58299,-0.0647 -0.32556,-0.13179 0.12871,-0.0334 0.28194,-0.0494 0.42581,-0.0476 z m -36.984307,1.96371 c 1.914443,0.004 3.834857,0.1669 5.001767,0.487311 7.50182,2.05989 13.67079,8.33066 15.51533,15.77113 0.67361,2.71706 0.66814,8.125151 -0.0108,10.715631 -1.07113,4.08654 -3.33053,7.870791 -6.33915,10.617441 -2.19614,2.004898 -4.10286,3.137908 -6.97942,4.148068 -2.09026,0.734031 -2.68222,0.822352 -6.022369,0.895551 -4.296379,0.0942 -6.387785,-0.32971 -9.576676,-1.94148 -5.694554,-2.87822 -9.851171,-8.031552 -11.492842,-14.248749 -0.700039,-2.651102 -0.759457,-7.565872 -0.123507,-10.221602 1.89176,-7.90003 7.374773,-13.63615 15.061612,-15.75718 1.143172,-0.31543 3.051665,-0.47024 4.966105,-0.466121 z m -17.336926,2.765221 c 0.08316,0 0.329999,0.17859 0.548288,0.39687 0.218282,0.21828 0.797954,0.39688 1.288294,0.39688 0.490339,0 0.93872,0.0893 0.996322,0.19844 0.05756,0.10914 -0.35226,0.59899 -0.910539,1.08881 -0.672071,0.5896 -1.014926,0.75814 -1.014926,0.49869 0,-0.21553 -0.238125,-0.69454 -0.529167,-1.06456 -0.49567,-0.63013 -0.716751,-1.51513 -0.378272,-1.51513 z m 35.289323,0.53948 c 0.17095,0.0103 0.30563,0.0837 0.39222,0.22376 0.0797,0.12899 -0.092,0.29639 -0.38137,0.37209 -0.341,0.0892 -0.52607,0.36113 -0.52607,0.77308 0,0.34962 -0.15181,0.84373 -0.33744,1.0976 -0.31488,0.43063 -0.37864,0.41751 -0.95292,-0.19378 l -0.61598,-0.65527 0.88728,-0.80616 c 0.60611,-0.55107 1.1582,-0.83402 1.53428,-0.81132 z m -13.62966,5.34078 c -0.0803,0.007 0.0941,0.1353 0.54673,0.44751 0.94316,0.65058 1.53484,0.69556 1.98645,0.15141 0.28553,-0.34393 0.20764,-0.39131 -0.56276,-0.34261 -0.49192,0.0311 -1.19218,-0.0364 -1.55598,-0.14987 -0.2263,-0.0706 -0.36627,-0.11046 -0.41444,-0.10644 z m -8.388637,0.004 c -0.06258,-0.0135 -0.178506,0.0801 -0.391191,0.27181 -0.254659,0.22949 -0.801937,0.50179 -1.215946,0.60513 -0.549,0.13705 -0.656426,0.24892 -0.396875,0.41341 0.91421,0.5794 2.075841,0.0652 2.075841,-0.91881 0,-0.23761 -0.0092,-0.35804 -0.07183,-0.37154 z m -18.562174,2.08048 c 0.110104,-0.0189 0.28869,0.11093 0.562756,0.38499 0.236609,0.23657 0.595032,0.33654 0.841293,0.23461 1.477528,-0.61156 1.592482,-0.48621 0.954463,1.04077 -0.441021,1.05551 -0.803857,1.21892 -1.041797,0.46922 -0.08537,-0.26896 -0.450837,-0.62358 -0.811837,-0.78807 -0.38368,-0.17481 -0.656291,-0.52142 -0.656291,-0.83405 0,-0.32115 0.04131,-0.48855 0.151413,-0.50747 z m 45.370361,1.09813 c 0.35227,-0.0118 0.58603,0.0955 0.79323,0.3452 0.34345,0.41384 0.32525,0.4406 -0.18862,0.2775 -0.44183,-0.14023 -0.69553,-0.002 -1.1405,0.62322 -0.69675,0.97849 -0.89158,0.99812 -1.28726,0.1297 -0.41782,-0.91703 -0.38708,-1.14393 0.15606,-1.15393 0.25467,-0.005 0.82692,-0.0816 1.27176,-0.17105 0.14711,-0.0296 0.2779,-0.0467 0.39533,-0.0506 z m -11.87215,0.92656 c -0.64259,-0.013 -1.45221,0.11909 -2.52284,0.38809 -2.00161,0.5029 -2.87441,0.51841 -4.00699,0.0718 -0.7747,-0.30547 -0.19045,0.26663 0.79375,0.77721 0.97657,0.50656 1.42587,0.50948 3.43958,0.0233 1.9325,-0.46662 3.41367,-0.50222 4.18476,-0.10128 0.56491,0.29374 0.56401,0.28532 -0.0382,-0.37001 -0.47376,-0.51551 -1.02383,-0.77234 -1.85002,-0.78909 z m -20.021516,0.28628 c -0.925531,-5.82e-4 -1.850551,0.0922 -2.327505,0.27854 -0.769041,0.30045 -2.040186,1.51103 -2.040186,1.94303 v 5.29e-4 c 0,0.1372 0.350186,-0.045 0.778248,-0.40514 1.244549,-1.04723 3.05667,-1.36253 4.976439,-0.86507 2.21334,0.57354 3.386077,0.5341 4.057118,-0.13694 0.30317,-0.30317 0.479523,-0.62273 0.392224,-0.71003 -0.08731,-0.0873 -0.299606,-0.0177 -0.471808,0.15451 -0.393409,0.39343 -2.052899,0.40558 -3.034437,0.0222 -0.478491,-0.18704 -1.404559,-0.28106 -2.330093,-0.28164 z m 18.212846,2.15956 c -1.18637,0 -1.53723,0.12412 -2.33991,0.82889 -1.19187,1.046469 -1.03664,1.262059 0.27027,0.37517 1.4539,-0.98664 3.12473,-0.94221 4.0597,0.10852 0.88031,0.989261 1.30067,1.03551 0.69608,0.0765 -0.72257,-1.14617 -1.19219,-1.38906 -2.68614,-1.38906 z m -16.945222,0.5302 c -0.807339,0.001 -2.460315,0.88689 -2.460315,1.318269 0,0.371369 0.102573,0.34617 1.179774,-0.289389 0.730469,-0.431 1.169905,-0.51575 1.933215,-0.37311 0.543359,0.10155 1.136883,0.30754 1.318781,0.45786 0.22968,0.18978 0.330729,0.18447 0.330729,-0.017 0,-0.41619 -1.430935,-1.09758 -2.302184,-1.09658 z m 16.713192,1.08314 c -0.26488,-0.008 -0.51483,0.0149 -0.73949,0.0713 -0.78918,0.19807 -3.17797,2.12009 -2.79518,2.248961 0.15816,0.0532 0.64263,-0.166071 1.07642,-0.486791 0.4338,-0.32072 0.818,-0.542711 0.8537,-0.493509 0.0357,0.0492 0.27019,0.53589 0.5209,1.08159 0.38903,0.846839 0.57994,0.991569 1.30328,0.988568 1.48073,-0.006 2.03811,-0.26716 2.03811,-0.953428 0,-0.63672 0.60979,-0.877591 0.92604,-0.365871 0.0899,0.14552 0.54335,0.25918 1.0077,0.252179 l 0.84439,-0.01288 -0.81597,-0.450101 c -0.44863,-0.247669 -1.22253,-0.717899 -1.71979,-1.044901 -0.7773,-0.511159 -1.70546,-0.811828 -2.50011,-0.835088 z m -16.32717,0.57102 c -1.052169,-0.0443 -2.156148,0.3374 -3.416329,1.149289 -0.90314,0.581861 -1.574205,0.842741 -1.901174,0.738971 -0.33138,-0.105262 -0.443318,-0.0599 -0.324528,0.132289 0.2769,0.44804 1.382358,0.350131 2.504239,-0.22221 l 1.010275,-0.515729 0.367934,0.714169 c 0.202221,0.39265 0.48677,0.80105 0.632521,0.90796 0.145749,0.106892 0.681813,0.194821 1.191141,0.194821 1.13588,0 1.434439,-0.20228 1.52704,-1.03405 0.09873,-0.886521 0.15951,-0.908942 1.117762,-0.413412 0.866719,0.448202 1.758532,0.356701 1.446421,-0.148309 -0.09671,-0.15653 -0.328427,-0.226021 -0.514697,-0.154509 -0.186269,0.0715 -0.739658,-0.142862 -1.229899,-0.47594 -0.805117,-0.547021 -1.592353,-0.83891 -2.410706,-0.87334 z m 15.94115,0.266139 c 0.14422,0.01291 0.26251,0.15671 0.26251,0.446479 0,0.767112 0.77711,1.020771 1.2299,0.401532 0.27503,-0.376121 0.43244,-0.418682 0.66973,-0.18139 0.23729,0.237289 0.19643,0.43594 -0.17415,0.845428 -0.2665,0.294492 -0.74533,0.535371 -1.06402,0.535371 -0.71431,0 -1.53293,-0.85743 -1.41232,-1.479499 0.0746,-0.38462 0.30292,-0.584481 0.48835,-0.567921 z m -16.966411,0.479039 c 0.148011,0.01709 0.288063,0.18878 0.372071,0.510043 0.180519,0.690337 0.991139,0.682807 1.172538,-0.0108 0.07766,-0.296993 0.267411,-0.497883 0.421682,-0.446482 0.436578,0.145521 0.485336,0.570061 0.118853,1.036629 -0.183858,0.234083 -0.585827,0.499862 -0.892968,0.590662 -0.7337,0.21695 -1.844284,-0.652331 -1.610754,-1.260909 0.114506,-0.298371 0.27057,-0.436153 0.418578,-0.419092 z M 99.1739,56.307467 c -0.0063,-0.003 -0.01228,-0.0021 -0.0181,0.0021 -0.346599,0.214191 -0.28203,2.60358 0.0801,2.96571 0.172198,0.172251 0.333867,0.28566 0.359666,0.251671 0.165794,-0.218659 -0.227586,-3.141159 -0.421679,-3.218931 z m -2.66547,0.547251 c -0.133126,-0.02101 -0.135478,0.23591 -0.05426,0.943099 0.07185,0.625581 0.195186,1.31599 0.273887,1.534271 0.09581,0.2657 0.218545,0.13453 0.371035,-0.396869 0.25636,-0.893311 0.12337,-1.528901 -0.412377,-1.973533 -0.07527,-0.0625 -0.133911,-0.1 -0.178285,-0.106968 z m 24.13186,0.71624 c 0.1162,0.0021 0.24882,0.006 0.40049,0.0114 0.85756,0.0289 1.3248,0.189452 1.58492,0.545182 0.42963,0.587549 0.28207,0.883499 -0.22893,0.459409 -0.26234,-0.217731 -0.5668,-0.160369 -1.20354,0.226859 -1.17092,0.71207 -1.36839,0.657942 -1.36839,-0.376719 0,-0.781849 0.002,-0.880891 0.81545,-0.866101 z m -16.29358,0.674889 0.74208,0.675409 c 0.75154,0.683882 1.8688,0.89548 2.16834,0.410832 0.093,-0.150571 -0.13382,-0.26458 -0.52658,-0.26458 -0.37961,0 -1.07166,-0.184812 -1.53738,-0.41083 z m -29.203384,0.0636 c 0.285435,0.01619 0.363802,0.299231 0.363802,0.890381 0,0.509329 -0.119063,0.912249 -0.264584,0.895549 -1.843198,-0.211969 -2.759789,-0.660829 -2.773989,-1.35857 -0.0067,-0.32831 0.471847,-0.22325 0.602546,0.13229 0.09193,0.250092 0.32825,0.217842 0.969449,-0.13229 0.53354,-0.29134 0.880772,-0.439988 1.102776,-0.42736 z m 17.236156,0.29042 c -0.115236,-0.0021 -0.334825,0.0931 -0.642337,0.308502 -0.33283,0.233119 -0.942702,0.423748 -1.355473,0.423748 -0.432959,0 -0.681345,0.111951 -0.587045,0.264581 0.28388,0.459341 1.595824,0.287229 2.216404,-0.290931 0.462767,-0.431141 0.560518,-0.702939 0.368451,-0.7059 z m 0.199988,2.584331 c -0.144219,0 -0.189635,0.34222 -0.102835,0.77619 0.12057,0.60285 0.0074,0.92384 -0.505913,1.437118 -0.622149,0.622142 -0.778711,0.652122 -2.677872,0.508493 -1.70984,-0.129321 -2.097971,-0.0802 -2.544032,0.323498 -0.589788,0.533759 -0.710602,1.956411 -0.208772,2.458241 0.447609,0.447601 0.46032,0.423209 0.297141,-0.582391 -0.121272,-0.747299 -0.03816,-0.970899 0.490407,-1.31723 0.543862,-0.356349 0.87625,-0.372639 2.28255,-0.111109 1.529858,0.284519 1.700583,0.26611 2.412773,-0.26044 0.663778,-0.49075 0.809101,-0.51502 1.08727,-0.17984 0.17662,0.212809 0.502267,0.387059 0.723988,0.387059 0.28036,0 0.190277,-0.19729 -0.296622,-0.648539 -0.385051,-0.356852 -0.700217,-0.747041 -0.700217,-0.86713 0,-0.432241 0.831892,-1.394751 1.205611,-1.394751 0.210031,0 0.381889,-0.131921 0.381889,-0.292999 0,-0.161092 -0.178594,-0.220602 -0.396875,-0.1323 -0.218279,0.0883 -0.575469,0.23313 -0.79375,0.321429 -0.218279,0.0883 -0.396875,0.0288 -0.396875,-0.132289 0,-0.161091 -0.115975,-0.29301 -0.257866,-0.29301 z m 9.3307,0.343649 c -0.35151,0.004 -0.27693,0.0647 0.11575,0.249081 0.87845,0.41239 1.01232,1.195949 0.35605,2.083599 -0.44517,0.60212 -0.48086,0.76326 -0.16898,0.76326 0.21752,0 0.52494,-0.2418 0.68316,-0.537441 l 0.28733,-0.537429 0.68367,0.537429 c 0.50425,0.396643 1.07625,0.537441 2.1823,0.537441 0.82439,0 1.64128,0.143182 1.81591,0.317809 0.17462,0.174623 0.32621,0.799701 0.33642,1.389063 0.0146,0.840928 0.0675,0.957368 0.24597,0.542089 0.12507,-0.291039 0.23578,-0.913271 0.24598,-1.382872 0.0267,-1.22687 -0.79026,-1.686009 -2.84168,-1.597308 -1.8579,0.0803 -2.52597,-0.34001 -2.49287,-1.56787 0.0182,-0.676701 -0.0672,-0.747131 -0.95137,-0.783932 -0.21572,-0.009 -0.38047,-0.01421 -0.49764,-0.01289 z m -7.233152,2.037601 c -0.802201,0 -0.608695,0.467109 0.273884,0.66095 0.43489,0.0955 0.858546,0.28374 0.941546,0.418061 0.239498,0.387519 0.912378,0.283929 0.758608,-0.116793 -0.16573,-0.431898 -1.253429,-0.962218 -1.974038,-0.962218 z m 6.189282,0 c -0.72412,0 -2.208131,0.920398 -2.208131,1.36943 0,0.1611 0.191781,0.192771 0.463021,0.0765 0.254661,-0.10918 0.96766,-0.37397 1.5844,-0.588078 1.19171,-0.413721 1.27493,-0.857832 0.16071,-0.857832 z m 11.09907,1.368399 c -0.1321,0.0277 -0.22925,0.439401 -0.53744,1.751311 -0.35335,1.504199 0.15458,1.36561 0.67076,-0.18293 0.26995,-0.809742 0.29598,-1.21194 0.0915,-1.41645 -0.0976,-0.0976 -0.16474,-0.16452 -0.22479,-0.151931 z m -35.878432,0.521411 c 0.199081,-0.0316 0.388795,0.233059 0.584978,0.795819 0.409829,1.175661 0.381471,1.250381 -0.46509,1.226281 -0.415589,-0.0118 -0.879615,0.0553 -1.030943,0.14883 -0.356161,0.22012 -1.588212,-0.772451 -1.307931,-1.053682 0.117049,-0.117448 0.305202,-0.0643 0.418063,0.118333 0.287218,0.46473 0.961575,0.14292 1.312063,-0.626311 0.173641,-0.381112 0.334021,-0.58473 0.48886,-0.60927 z m 30.071032,0.01289 c -0.059,-0.01439 -0.0797,0.0653 -0.0832,0.23409 -0.005,0.229311 -0.30864,0.699349 -0.67592,1.044389 -0.6081,0.571281 -0.94511,0.63627 -3.77032,0.729671 -1.706398,0.0565 -3.40031,0.112969 -3.76411,0.125571 -0.36381,0.01259 -1.670587,-0.116401 -2.903699,-0.2868 -1.233109,-0.17041 -2.873788,-0.31006 -3.646289,-0.31006 -1.19756,0 -1.435671,-0.0843 -1.615921,-0.57154 l -0.211357,-0.571542 -0.441833,0.630452 c -0.57902,0.826619 -0.558194,1.114369 0.06614,0.91622 0.560869,-0.17802 2.472788,0.664649 4.585766,2.020549 0.738571,0.47394 1.948466,1.077971 2.688725,1.342551 h 5.29e-4 c 1.539481,0.55023 3.606695,0.48283 4.845179,-0.157612 0.42959,-0.222149 1.70825,-1.191578 2.84118,-2.154388 1.16077,-0.98646 2.21861,-1.68945 2.42362,-1.610752 0.47853,0.18365 0.46466,-0.402929 -0.0248,-1.050068 -0.15729,-0.207941 -0.25465,-0.316341 -0.31367,-0.330731 z m -23.036319,0.213939 c -0.285261,0 -0.294974,0.119891 -0.04909,0.595312 0.169342,0.32742 0.490196,0.804328 0.713134,1.05989 0.602181,0.69026 0.667441,0.388209 0.150379,-0.69608 -0.251468,-0.527341 -0.617969,-0.959122 -0.814419,-0.959122 z m 36.057749,0.763781 c 0.0707,0.005 0.11627,0.0953 0.11627,0.28939 0,0.142751 0.30046,0.335161 0.66766,0.427361 0.61767,0.155019 1.44901,1.00916 1.44901,1.488799 0,0.315871 -0.36138,0.22614 -0.71624,-0.177771 -0.21579,-0.245649 -0.66044,-0.31687 -1.37408,-0.22117 l -1.05523,0.141071 0.29404,-0.958589 c 0.18515,-0.603271 0.46301,-1.001141 0.61857,-0.989091 z m -26.738939,1.347721 0.926041,0.134879 c 0.509321,0.0743 1.648775,0.244139 2.532145,0.37723 0.883372,0.133109 2.847896,0.184179 4.365623,0.11317 l 2.75952,-0.129191 -0.91467,0.78445 c -0.58653,0.503161 -1.33473,0.842021 -2.08721,0.945161 -2.46455,0.337801 -4.437525,0.0021 -5.510775,-0.937411 -0.26579,-0.232688 -0.840364,-0.617799 -1.276924,-0.855758 z m 5.577438,3.841628 c -1.344811,0 -1.638433,0.0703 -1.416453,0.337442 0.3038,0.36567 0.289042,0.394891 -0.37207,0.748279 -0.28829,0.154159 0.477925,0.237191 2.182813,0.237191 1.444871,0 2.627231,-0.0703 2.627231,-0.15606 0,-0.0858 -0.29766,-0.291581 -0.66146,-0.45734 -0.3638,-0.165761 -0.661704,-0.393131 -0.661973,-0.505391 -2.65e-4,-0.11231 -0.764797,-0.204121 -1.698088,-0.204121 z m -18.375622,0.827852 c 0.125412,-0.005 0.291216,0.17956 0.639754,0.59377 0.357018,0.424289 0.649055,0.8406 0.649055,0.925 0,0.0844 -0.351491,0.335071 -0.78083,0.557069 -0.85217,0.44068 -2.129587,0.5427 -2.129587,0.170021 0,-0.12855 0.238128,-0.29597 0.529167,-0.37207 0.291042,-0.0761 0.529167,-0.336261 0.529167,-0.577741 0,-0.24147 0.124685,-0.671439 0.276987,-0.956019 0.115644,-0.21608 0.188743,-0.33581 0.286287,-0.34003 z m -9.963734,0.532268 c -0.07906,0.004 -0.16588,0.0136 -0.256831,0.031 -0.363799,0.0696 -0.661459,0.172101 -0.661459,0.227899 0,0.0558 0.29766,0.101801 0.661459,0.101801 0.363799,0 0.661458,-0.10255 0.661458,-0.227891 0,-0.094 -0.167431,-0.143428 -0.404627,-0.132809 z m 45.007587,1.173051 c 0.0747,0.01561 0.11162,0.109152 0.11162,0.280609 0,0.165222 0.29766,0.57648 0.66146,0.913641 0.3638,0.337161 0.66146,0.850061 0.66146,1.13946 0,0.704321 -0.43618,0.94197 -0.59738,0.325559 -0.0821,-0.313999 -0.47342,-0.555408 -1.0883,-0.670748 -1.07227,-0.20117 -1.17785,-0.53553 -0.44597,-1.41284 0.34262,-0.41071 0.57262,-0.60171 0.69711,-0.575681 z M 86.929687,79.17584 c 0.334249,0 2.189763,0.925898 2.196764,1.096057 0.0038,0.0934 -0.27809,0.240842 -0.6258,0.328142 -0.37283,0.0936 -0.697267,0.41901 -0.791168,0.793239 -0.19745,0.78672 -0.760277,1.02775 -1.365808,0.58497 -0.420309,-0.307351 -0.422659,-0.35002 -0.02584,-0.50229 0.302958,-0.116261 0.43408,-0.488918 0.43408,-1.233519 0,-0.586651 0.07997,-1.066599 0.177768,-1.066599 z m 20.917073,0.319878 c 0.22061,0.01561 0.37708,0.311751 0.69401,0.97358 0.39,0.81444 0.42853,1.137091 0.18914,1.584401 -0.36825,0.68806 -0.54674,0.714788 -0.54674,0.0822 0,-0.263667 -0.37712,-0.75828 -0.83819,-1.099158 l -0.83871,-0.619601 0.60306,-0.488339 c 0.3551,-0.287541 0.56584,-0.445151 0.73743,-0.433052 z m -8.813936,2.08049 c 0.400156,0.0011 0.418209,0.10672 0.277503,0.42581 -0.11667,0.26461 -0.233733,0.838301 -0.259934,1.274861 -0.0263,0.436559 -0.06585,0.92973 -0.08785,1.09606 -0.02196,0.16633 -0.226436,0.37407 -0.454234,0.46147 -0.32191,0.123529 -0.374944,0.0363 -0.239263,-0.391191 0.11919,-0.375529 -0.0089,-0.74516 -0.403592,-1.1653 -0.859801,-0.91522 -0.612535,-1.570579 0.631486,-1.672769 0.226671,-0.0186 0.402497,-0.0294 0.535884,-0.0289 z"
       id="path880"
       inkscape:connector-curvature="0"
       sodipodi:nodetypes="cccccccccccccccccccccccccccccccccccccccsscccccssccscccccccsccccccsccsscccccscccccsccccccccccccscccsccssccscscccscccsccccccscscccccccccccccccccccccccccccsccccccscccscccscsssccccccccscccccsccccccccccccccccsscccssccccsccccccccscccccccccccccccccscccsccccsccsscsccccccccccccccsccccccccccccccccccccccccccccccccccccscccscccscccscccscccccscscccssccscccccsscccccscccsccccccccccccccscccccccccccccccccccscccsccscccscccccccccscsssscscscccccsscccccccccccccccccccccccccccccccccsscccccccscccsccscccccccsccccsssscccccccccscccsccccccscsccccccccccccccssscccccccccccccccccccccsssccccccccscccccscccccccccsccccsccccccccccscsccscsccscscccscccccccccccccccscccccccscccccccccccccccccccccssccscccccccscccccscccscccccccccsccccccccsccccccscccccccscscscccsccccccccccccccccccccccsccscccccscccscccccccscccsccccccccccscsssccsscccscccssccccccccscccscscscccccccccccccccccccscscccccccccccccscccsscscscccccccccccccccsccssscsccscscsccccsssccsssccccscccccssscccsccccccccccscccc" />
  </g>
</svg>
